<svg width="36" height="33" viewBox="0 0 36 33" fill="none" xmlns="http://www.w3.org/2000/svg">
<g filter="url(#filter0_d_6671_1668)">
<path fill-rule="evenodd" clip-rule="evenodd" d="M4.08594 1.33325C4.08594 1.06804 4.19129 0.813681 4.37883 0.626145C4.56637 0.438609 4.82072 0.333252 5.08594 0.333252H6.6606C7.38393 0.333291 8.08288 0.594665 8.62875 1.06924C9.17462 1.54381 9.53065 2.19963 9.63127 2.91592L9.7126 3.49592H28.3326C28.8305 3.49593 29.3205 3.61985 29.7586 3.85651C30.1966 4.09317 30.5689 4.43513 30.8418 4.85155C31.1147 5.26798 31.2796 5.74578 31.3218 6.24187C31.364 6.73796 31.282 7.23675 31.0833 7.69325L27.5259 15.8639C27.2928 16.3996 26.9083 16.8555 26.4196 17.1758C25.931 17.496 25.3595 17.6666 24.7753 17.6666H12.2939C11.5706 17.6665 10.8717 17.4052 10.3258 16.9306C9.77992 16.456 9.42389 15.8002 9.32327 15.0839L7.65127 3.19459C7.61782 2.95567 7.49912 2.73689 7.31706 2.5786C7.135 2.42031 6.90185 2.33317 6.6606 2.33325H5.08727C4.82205 2.33325 4.5677 2.2279 4.38016 2.04036C4.19263 1.85282 4.08727 1.59847 4.08727 1.33325M9.99527 5.49592L11.3046 14.8053C11.3381 15.0442 11.4568 15.2629 11.6388 15.4212C11.8209 15.5795 12.054 15.6667 12.2953 15.6666H24.7766C24.9713 15.6667 25.1618 15.6101 25.3248 15.5035C25.4878 15.3969 25.6161 15.245 25.6939 15.0666L29.2499 6.89325C29.3158 6.74123 29.3428 6.57525 29.3286 6.4102C29.3144 6.24515 29.2594 6.08622 29.1686 5.94768C29.0778 5.80914 28.954 5.69533 28.8083 5.61648C28.6626 5.53762 28.4996 5.4962 28.3339 5.49592H9.99527Z" fill="#2D3F60"/>
<path d="M10.0469 22.0001C10.0469 21.3812 10.2927 20.7878 10.7303 20.3502C11.1679 19.9126 11.7614 19.6667 12.3802 19.6667C12.999 19.6667 13.5925 19.9126 14.0301 20.3502C14.4677 20.7878 14.7135 21.3812 14.7135 22.0001C14.7135 22.6189 14.4677 23.2124 14.0301 23.65C13.5925 24.0876 12.999 24.3334 12.3802 24.3334C11.7614 24.3334 11.1679 24.0876 10.7303 23.65C10.2927 23.2124 10.0469 22.6189 10.0469 22.0001ZM23.7615 19.6667C23.1427 19.6667 22.5492 19.9126 22.1116 20.3502C21.674 20.7878 21.4282 21.3812 21.4282 22.0001C21.4282 22.6189 21.674 23.2124 22.1116 23.65C22.5492 24.0876 23.1427 24.3334 23.7615 24.3334C24.3804 24.3334 24.9739 24.0876 25.4115 23.65C25.849 23.2124 26.0949 22.6189 26.0949 22.0001C26.0949 21.3812 25.849 20.7878 25.4115 20.3502C24.9739 19.9126 24.3804 19.6667 23.7615 19.6667Z" fill="#2D3F60"/>
</g>
<defs>
<filter id="filter0_d_6671_1668" x="0.0859375" y="0.333252" width="35.25" height="32.0002" filterUnits="userSpaceOnUse" color-interpolation-filters="sRGB">
<feFlood flood-opacity="0" result="BackgroundImageFix"/>
<feColorMatrix in="SourceAlpha" type="matrix" values="0 0 0 0 0 0 0 0 0 0 0 0 0 0 0 0 0 0 127 0" result="hardAlpha"/>
<feOffset dy="4"/>
<feGaussianBlur stdDeviation="2"/>
<feComposite in2="hardAlpha" operator="out"/>
<feColorMatrix type="matrix" values="0 0 0 0 0 0 0 0 0 0 0 0 0 0 0 0 0 0 0.25 0"/>
<feBlend mode="normal" in2="BackgroundImageFix" result="effect1_dropShadow_6671_1668"/>
<feBlend mode="normal" in="SourceGraphic" in2="effect1_dropShadow_6671_1668" result="shape"/>
</filter>
</defs>
</svg>
