<svg width="24" height="24" viewBox="0 0 24 24" fill="none" xmlns="http://www.w3.org/2000/svg">
<g clip-path="url(#clip0_4382_4558)">
<path d="M19 2H10C7.24 2 5 4.24 5 7V13C5 14.07 5.34 15.06 5.91 15.87L12.01 9.77C13.02 8.76 14.67 8.75 15.69 9.77L16.73 10.81C16.96 11.04 17.35 11.04 17.58 10.81L23.53 4.86C22.73 3.17 21 2 19.01 2H19ZM9.5 8C8.67 8 8 7.33 8 6.5C8 5.67 8.67 5 9.5 5C10.33 5 11 5.67 11 6.5C11 7.33 10.33 8 9.5 8ZM24 7.21V13C24 15.76 21.76 18 19 18H10C9.03 18 8.13 17.72 7.36 17.25L13.42 11.19C13.65 10.96 14.04 10.96 14.27 11.19L15.31 12.23C16.29 13.21 18 13.21 18.98 12.23L24 7.21ZM18 20C17.09 21.21 15.63 22 14 22H5C2.24 22 0 19.76 0 17V11C0 8.94 1.25 7.17 3.03 6.41C3.01 6.61 3 6.8 3 7V13C3 16.87 6.13 20 10 20H18Z" fill="#9CC0F2"/>
</g>
<defs>
<clipPath id="clip0_4382_4558">
<rect width="24" height="24" fill="white"/>
</clipPath>
</defs>
</svg>
