<svg width="24" height="24" viewBox="0 0 24 24" fill="none" xmlns="http://www.w3.org/2000/svg">
<g clip-path="url(#clip0_4435_3230)">
<path d="M7.3125 0.9375H20.25C21.8033 0.9375 23.0625 2.1967 23.0625 3.75V20.25M23.0625 20.25C23.0625 21.8033 21.8033 23.0625 20.25 23.0625M23.0625 20.25V12.1875M20.25 23.0625H3.75C2.1967 23.0625 0.9375 21.8033 0.9375 20.25V7.5C0.9375 5.9467 2.1967 4.6875 3.75 4.6875H14.625C16.1783 4.6875 17.4375 5.9467 17.4375 7.5V20.25C17.4375 21.8033 18.6967 23.0625 20.25 23.0625Z" stroke="#222222" stroke-width="1.5" stroke-miterlimit="10" stroke-linecap="round" stroke-linejoin="round"/>
<path d="M12.75 12H5.625C5.10722 12 4.6875 11.5803 4.6875 11.0625V9.1875C4.6875 8.66972 5.10722 8.25 5.625 8.25H12.75C13.2678 8.25 13.6875 8.66972 13.6875 9.1875V11.0625C13.6875 11.5803 13.2678 12 12.75 12Z" stroke="#222222" stroke-width="1.5" stroke-miterlimit="10" stroke-linecap="round" stroke-linejoin="round"/>
<path d="M8.25 19.3125H13.6875" stroke="#222222" stroke-width="1.5" stroke-miterlimit="10" stroke-linecap="round" stroke-linejoin="round"/>
<path d="M8.25 15.5625H13.6875" stroke="#222222" stroke-width="1.5" stroke-miterlimit="10" stroke-linecap="round" stroke-linejoin="round"/>
<circle cx="4.6875" cy="19.3125" r="0.9375" fill="#222222"/>
<circle cx="4.6875" cy="15.5625" r="0.9375" fill="#222222"/>
</g>
<defs>
<clipPath id="clip0_4435_3230">
<rect width="24" height="24" fill="white"/>
</clipPath>
</defs>
</svg>
