<svg width="328" height="19" viewBox="0 0 328 19" fill="none" xmlns="http://www.w3.org/2000/svg">
<path d="M0.5 16.12H16.5V0.12H0.5V16.12ZM27.2734 9.17969C27.2734 10.4661 27.0339 11.5417 26.5547 12.4062C26.0755 13.2656 25.3802 13.9141 24.4688 14.3516C23.5573 14.7839 22.4583 15 21.1719 15H18V3.57812H21.5156C22.6979 3.57812 23.7188 3.79167 24.5781 4.21875C25.4375 4.64062 26.1016 5.26823 26.5703 6.10156C27.0391 6.92969 27.2734 7.95573 27.2734 9.17969ZM25.3203 9.23438C25.3203 8.29688 25.1719 7.52604 24.875 6.92188C24.5833 6.31771 24.151 5.86979 23.5781 5.57812C23.0104 5.28125 22.3099 5.13281 21.4766 5.13281H19.875V13.4297H21.2031C22.5833 13.4297 23.6146 13.0781 24.2969 12.375C24.9792 11.6719 25.3203 10.625 25.3203 9.23438ZM31.3828 6.35156V15H29.5469V6.35156H31.3828ZM30.4766 3.03906C30.7578 3.03906 31 3.11458 31.2031 3.26562C31.4115 3.41667 31.5156 3.67708 31.5156 4.04688C31.5156 4.41146 31.4115 4.67188 31.2031 4.82812C31 4.97917 30.7578 5.05469 30.4766 5.05469C30.1849 5.05469 29.9375 4.97917 29.7344 4.82812C29.5365 4.67188 29.4375 4.41146 29.4375 4.04688C29.4375 3.67708 29.5365 3.41667 29.7344 3.26562C29.9375 3.11458 30.1849 3.03906 30.4766 3.03906ZM39.8281 12.5312C39.8281 13.099 39.6901 13.5781 39.4141 13.9688C39.138 14.3594 38.7344 14.6562 38.2031 14.8594C37.6771 15.0573 37.0312 15.1562 36.2656 15.1562C35.6615 15.1562 35.1406 15.112 34.7031 15.0234C34.2708 14.9401 33.862 14.8099 33.4766 14.6328V13.0469C33.888 13.2396 34.349 13.4062 34.8594 13.5469C35.375 13.6875 35.862 13.7578 36.3203 13.7578C36.9245 13.7578 37.3594 13.6641 37.625 13.4766C37.8906 13.2839 38.0234 13.0286 38.0234 12.7109C38.0234 12.5234 37.9688 12.3568 37.8594 12.2109C37.7552 12.0599 37.5573 11.9062 37.2656 11.75C36.9792 11.5885 36.5573 11.3958 36 11.1719C35.4531 10.9531 34.9922 10.7344 34.6172 10.5156C34.2422 10.2969 33.9583 10.0339 33.7656 9.72656C33.5729 9.41406 33.4766 9.01562 33.4766 8.53125C33.4766 7.76562 33.7786 7.1849 34.3828 6.78906C34.9922 6.38802 35.7969 6.1875 36.7969 6.1875C37.3281 6.1875 37.8281 6.24219 38.2969 6.35156C38.7708 6.45573 39.2344 6.60938 39.6875 6.8125L39.1094 8.19531C38.7188 8.02344 38.3255 7.88281 37.9297 7.77344C37.5391 7.65885 37.1406 7.60156 36.7344 7.60156C36.2604 7.60156 35.8984 7.67448 35.6484 7.82031C35.4036 7.96615 35.2812 8.17448 35.2812 8.44531C35.2812 8.64844 35.3411 8.82031 35.4609 8.96094C35.5807 9.10156 35.7865 9.24219 36.0781 9.38281C36.375 9.52344 36.7865 9.69792 37.3125 9.90625C37.8281 10.1042 38.2734 10.3125 38.6484 10.5312C39.0286 10.7448 39.3203 11.0078 39.5234 11.3203C39.7266 11.6328 39.8281 12.0365 39.8281 12.5312ZM45.2969 15.1562C44.4792 15.1562 43.7708 14.9974 43.1719 14.6797C42.5729 14.362 42.112 13.875 41.7891 13.2188C41.4661 12.5625 41.3047 11.7292 41.3047 10.7188C41.3047 9.66667 41.4818 8.80729 41.8359 8.14062C42.1901 7.47396 42.6797 6.98177 43.3047 6.66406C43.9349 6.34635 44.6562 6.1875 45.4688 6.1875C45.9844 6.1875 46.4505 6.23958 46.8672 6.34375C47.2891 6.44271 47.6458 6.5651 47.9375 6.71094L47.3906 8.17969C47.0729 8.04948 46.7474 7.9401 46.4141 7.85156C46.0807 7.76302 45.7604 7.71875 45.4531 7.71875C44.9479 7.71875 44.526 7.83073 44.1875 8.05469C43.8542 8.27865 43.6042 8.61198 43.4375 9.05469C43.276 9.4974 43.1953 10.0469 43.1953 10.7031C43.1953 11.3385 43.2786 11.875 43.4453 12.3125C43.612 12.7448 43.8594 13.0729 44.1875 13.2969C44.5156 13.5156 44.9193 13.625 45.3984 13.625C45.8724 13.625 46.2969 13.5677 46.6719 13.4531C47.0469 13.3385 47.401 13.1901 47.7344 13.0078V14.6016C47.4062 14.7891 47.0547 14.9271 46.6797 15.0156C46.3047 15.1094 45.8438 15.1562 45.2969 15.1562ZM57.4219 10.6562C57.4219 11.375 57.3281 12.013 57.1406 12.5703C56.9531 13.1276 56.6797 13.599 56.3203 13.9844C55.9609 14.3646 55.5286 14.6562 55.0234 14.8594C54.5182 15.0573 53.9479 15.1562 53.3125 15.1562C52.7188 15.1562 52.1745 15.0573 51.6797 14.8594C51.1849 14.6562 50.7552 14.3646 50.3906 13.9844C50.0312 13.599 49.7526 13.1276 49.5547 12.5703C49.3568 12.013 49.2578 11.375 49.2578 10.6562C49.2578 9.70312 49.4219 8.89583 49.75 8.23438C50.0833 7.56771 50.5573 7.0599 51.1719 6.71094C51.7865 6.36198 52.5182 6.1875 53.3672 6.1875C54.1641 6.1875 54.8672 6.36198 55.4766 6.71094C56.0859 7.0599 56.5625 7.56771 56.9062 8.23438C57.25 8.90104 57.4219 9.70833 57.4219 10.6562ZM51.1484 10.6562C51.1484 11.2865 51.224 11.8255 51.375 12.2734C51.5312 12.7214 51.7708 13.0651 52.0938 13.3047C52.4167 13.5391 52.8333 13.6562 53.3438 13.6562C53.8542 13.6562 54.2708 13.5391 54.5938 13.3047C54.9167 13.0651 55.1536 12.7214 55.3047 12.2734C55.4557 11.8255 55.5312 11.2865 55.5312 10.6562C55.5312 10.026 55.4557 9.49219 55.3047 9.05469C55.1536 8.61198 54.9167 8.27604 54.5938 8.04688C54.2708 7.8125 53.8516 7.69531 53.3359 7.69531C52.5755 7.69531 52.0208 7.95052 51.6719 8.46094C51.3229 8.97135 51.1484 9.70312 51.1484 10.6562ZM61.5078 15L58.2188 6.35156H60.1641L61.9453 11.4297C62.0599 11.7526 62.1641 12.1016 62.2578 12.4766C62.3516 12.8516 62.4167 13.1667 62.4531 13.4219H62.5156C62.5521 13.1562 62.6224 12.8385 62.7266 12.4688C62.8307 12.0938 62.9375 11.7474 63.0469 11.4297L64.8281 6.35156H66.7656L63.4766 15H61.5078ZM71.5234 6.1875C72.2943 6.1875 72.9557 6.34635 73.5078 6.66406C74.0599 6.98177 74.4844 7.43229 74.7812 8.01562C75.0781 8.59896 75.2266 9.29688 75.2266 10.1094V11.0938H69.4531C69.474 11.9323 69.6979 12.5781 70.125 13.0312C70.5573 13.4844 71.1615 13.7109 71.9375 13.7109C72.4896 13.7109 72.9844 13.6589 73.4219 13.5547C73.8646 13.4453 74.3203 13.2865 74.7891 13.0781V14.5703C74.3568 14.7734 73.9167 14.9219 73.4688 15.0156C73.0208 15.1094 72.4844 15.1562 71.8594 15.1562C71.0104 15.1562 70.263 14.9922 69.6172 14.6641C68.9766 14.3307 68.474 13.8359 68.1094 13.1797C67.75 12.5234 67.5703 11.7083 67.5703 10.7344C67.5703 9.76562 67.7344 8.94271 68.0625 8.26562C68.3906 7.58854 68.8516 7.07292 69.4453 6.71875C70.0391 6.36458 70.7318 6.1875 71.5234 6.1875ZM71.5234 7.57031C70.9453 7.57031 70.4766 7.75781 70.1172 8.13281C69.763 8.50781 69.5547 9.05729 69.4922 9.78125H73.4297C73.4245 9.34896 73.3516 8.96615 73.2109 8.63281C73.0755 8.29948 72.8672 8.03906 72.5859 7.85156C72.3099 7.66406 71.9557 7.57031 71.5234 7.57031ZM81.6797 6.1875C81.8255 6.1875 81.9844 6.19531 82.1562 6.21094C82.3281 6.22656 82.4766 6.2474 82.6016 6.27344L82.4297 7.99219C82.3203 7.96094 82.1849 7.9375 82.0234 7.92188C81.8672 7.90625 81.7266 7.89844 81.6016 7.89844C81.2734 7.89844 80.9609 7.95312 80.6641 8.0625C80.3672 8.16667 80.1042 8.32812 79.875 8.54688C79.6458 8.76042 79.4661 9.02865 79.3359 9.35156C79.2057 9.67448 79.1406 10.0495 79.1406 10.4766V15H77.2969V6.35156H78.7344L78.9844 7.875H79.0703C79.2422 7.56771 79.4557 7.28646 79.7109 7.03125C79.9661 6.77604 80.2578 6.57292 80.5859 6.42188C80.9193 6.26562 81.2839 6.1875 81.6797 6.1875ZM93.4766 15L90.1875 5.46094H90.1172C90.1328 5.67448 90.151 5.96615 90.1719 6.33594C90.1927 6.70573 90.2109 7.10156 90.2266 7.52344C90.2422 7.94531 90.25 8.34896 90.25 8.73438V15H88.5469V3.57812H91.1797L94.3438 12.6953H94.3906L97.6641 3.57812H100.289V15H98.5V8.64062C98.5 8.29167 98.5052 7.91406 98.5156 7.50781C98.5312 7.10156 98.5469 6.71615 98.5625 6.35156C98.5833 5.98698 98.599 5.69531 98.6094 5.47656H98.5469L95.1328 15H93.4766ZM110.766 10.6562C110.766 11.375 110.672 12.013 110.484 12.5703C110.297 13.1276 110.023 13.599 109.664 13.9844C109.305 14.3646 108.872 14.6562 108.367 14.8594C107.862 15.0573 107.292 15.1562 106.656 15.1562C106.062 15.1562 105.518 15.0573 105.023 14.8594C104.529 14.6562 104.099 14.3646 103.734 13.9844C103.375 13.599 103.096 13.1276 102.898 12.5703C102.701 12.013 102.602 11.375 102.602 10.6562C102.602 9.70312 102.766 8.89583 103.094 8.23438C103.427 7.56771 103.901 7.0599 104.516 6.71094C105.13 6.36198 105.862 6.1875 106.711 6.1875C107.508 6.1875 108.211 6.36198 108.82 6.71094C109.43 7.0599 109.906 7.56771 110.25 8.23438C110.594 8.90104 110.766 9.70833 110.766 10.6562ZM104.492 10.6562C104.492 11.2865 104.568 11.8255 104.719 12.2734C104.875 12.7214 105.115 13.0651 105.438 13.3047C105.76 13.5391 106.177 13.6562 106.688 13.6562C107.198 13.6562 107.615 13.5391 107.938 13.3047C108.26 13.0651 108.497 12.7214 108.648 12.2734C108.799 11.8255 108.875 11.2865 108.875 10.6562C108.875 10.026 108.799 9.49219 108.648 9.05469C108.497 8.61198 108.26 8.27604 107.938 8.04688C107.615 7.8125 107.195 7.69531 106.68 7.69531C105.919 7.69531 105.365 7.95052 105.016 8.46094C104.667 8.97135 104.492 9.70312 104.492 10.6562ZM117.258 6.1875C117.404 6.1875 117.562 6.19531 117.734 6.21094C117.906 6.22656 118.055 6.2474 118.18 6.27344L118.008 7.99219C117.898 7.96094 117.763 7.9375 117.602 7.92188C117.445 7.90625 117.305 7.89844 117.18 7.89844C116.852 7.89844 116.539 7.95312 116.242 8.0625C115.945 8.16667 115.682 8.32812 115.453 8.54688C115.224 8.76042 115.044 9.02865 114.914 9.35156C114.784 9.67448 114.719 10.0495 114.719 10.4766V15H112.875V6.35156H114.312L114.562 7.875H114.648C114.82 7.56771 115.034 7.28646 115.289 7.03125C115.544 6.77604 115.836 6.57292 116.164 6.42188C116.497 6.26562 116.862 6.1875 117.258 6.1875ZM123.227 6.1875C123.997 6.1875 124.659 6.34635 125.211 6.66406C125.763 6.98177 126.188 7.43229 126.484 8.01562C126.781 8.59896 126.93 9.29688 126.93 10.1094V11.0938H121.156C121.177 11.9323 121.401 12.5781 121.828 13.0312C122.26 13.4844 122.865 13.7109 123.641 13.7109C124.193 13.7109 124.688 13.6589 125.125 13.5547C125.568 13.4453 126.023 13.2865 126.492 13.0781V14.5703C126.06 14.7734 125.62 14.9219 125.172 15.0156C124.724 15.1094 124.188 15.1562 123.562 15.1562C122.714 15.1562 121.966 14.9922 121.32 14.6641C120.68 14.3307 120.177 13.8359 119.812 13.1797C119.453 12.5234 119.273 11.7083 119.273 10.7344C119.273 9.76562 119.438 8.94271 119.766 8.26562C120.094 7.58854 120.555 7.07292 121.148 6.71875C121.742 6.36458 122.435 6.1875 123.227 6.1875ZM123.227 7.57031C122.648 7.57031 122.18 7.75781 121.82 8.13281C121.466 8.50781 121.258 9.05729 121.195 9.78125H125.133C125.128 9.34896 125.055 8.96615 124.914 8.63281C124.779 8.29948 124.57 8.03906 124.289 7.85156C124.013 7.66406 123.659 7.57031 123.227 7.57031ZM130.852 13.1406L130.961 13.3203C130.867 13.6953 130.747 14.099 130.602 14.5312C130.456 14.9635 130.297 15.3958 130.125 15.8281C129.953 16.2656 129.779 16.6771 129.602 17.0625H128.258C128.367 16.6406 128.471 16.1979 128.57 15.7344C128.674 15.276 128.768 14.8229 128.852 14.375C128.94 13.9219 129.01 13.5104 129.062 13.1406H130.852ZM141.023 3.57812C142.497 3.57812 143.573 3.88021 144.25 4.48438C144.927 5.08854 145.266 5.9349 145.266 7.02344C145.266 7.51823 145.188 7.98958 145.031 8.4375C144.88 8.88021 144.63 9.27344 144.281 9.61719C143.932 9.95573 143.471 10.224 142.898 10.4219C142.331 10.6198 141.63 10.7188 140.797 10.7188H139.578V15H137.703V3.57812H141.023ZM140.898 5.13281H139.578V9.15625H140.602C141.19 9.15625 141.69 9.08854 142.102 8.95312C142.513 8.8125 142.826 8.59115 143.039 8.28906C143.253 7.98698 143.359 7.58854 143.359 7.09375C143.359 6.43229 143.159 5.9401 142.758 5.61719C142.362 5.29427 141.742 5.13281 140.898 5.13281ZM150.75 6.1875C151.844 6.1875 152.669 6.42969 153.227 6.91406C153.789 7.39844 154.07 8.15365 154.07 9.17969V15H152.766L152.414 13.7734H152.352C152.107 14.0859 151.854 14.3438 151.594 14.5469C151.333 14.75 151.031 14.901 150.688 15C150.349 15.1042 149.935 15.1562 149.445 15.1562C148.93 15.1562 148.469 15.0625 148.062 14.875C147.656 14.6823 147.336 14.3906 147.102 14C146.867 13.6094 146.75 13.1146 146.75 12.5156C146.75 11.625 147.081 10.9557 147.742 10.5078C148.409 10.0599 149.414 9.8125 150.758 9.76562L152.258 9.71094V9.25781C152.258 8.65885 152.117 8.23177 151.836 7.97656C151.56 7.72135 151.169 7.59375 150.664 7.59375C150.232 7.59375 149.812 7.65625 149.406 7.78125C149 7.90625 148.604 8.0599 148.219 8.24219L147.625 6.94531C148.047 6.72135 148.526 6.53906 149.062 6.39844C149.604 6.25781 150.167 6.1875 150.75 6.1875ZM152.25 10.8672L151.133 10.9062C150.216 10.9375 149.573 11.0938 149.203 11.375C148.833 11.6562 148.648 12.0417 148.648 12.5312C148.648 12.9583 148.776 13.2708 149.031 13.4688C149.286 13.6615 149.622 13.7578 150.039 13.7578C150.674 13.7578 151.201 13.5781 151.617 13.2188C152.039 12.8542 152.25 12.3203 152.25 11.6172V10.8672ZM155.336 6.35156H157.336L159.109 11.2891C159.188 11.513 159.258 11.7344 159.32 11.9531C159.388 12.1667 159.445 12.3776 159.492 12.5859C159.544 12.7943 159.586 13.0026 159.617 13.2109H159.664C159.716 12.9401 159.789 12.638 159.883 12.3047C159.982 11.9661 160.091 11.6276 160.211 11.2891L161.914 6.35156H163.891L160.18 16.1875C159.966 16.75 159.703 17.2292 159.391 17.625C159.083 18.026 158.719 18.3281 158.297 18.5312C157.875 18.7396 157.393 18.8438 156.852 18.8438C156.591 18.8438 156.365 18.8281 156.172 18.7969C155.979 18.7708 155.815 18.7422 155.68 18.7109V17.2422C155.789 17.2682 155.927 17.2917 156.094 17.3125C156.26 17.3333 156.432 17.3438 156.609 17.3438C156.938 17.3438 157.221 17.2786 157.461 17.1484C157.701 17.0182 157.904 16.8333 158.07 16.5938C158.237 16.3594 158.375 16.0911 158.484 15.7891L158.789 14.9766L155.336 6.35156ZM169.547 15V3.57812H171.422V13.4062H176.273V15H169.547ZM181.508 6.1875C182.279 6.1875 182.94 6.34635 183.492 6.66406C184.044 6.98177 184.469 7.43229 184.766 8.01562C185.062 8.59896 185.211 9.29688 185.211 10.1094V11.0938H179.438C179.458 11.9323 179.682 12.5781 180.109 13.0312C180.542 13.4844 181.146 13.7109 181.922 13.7109C182.474 13.7109 182.969 13.6589 183.406 13.5547C183.849 13.4453 184.305 13.2865 184.773 13.0781V14.5703C184.341 14.7734 183.901 14.9219 183.453 15.0156C183.005 15.1094 182.469 15.1562 181.844 15.1562C180.995 15.1562 180.247 14.9922 179.602 14.6641C178.961 14.3307 178.458 13.8359 178.094 13.1797C177.734 12.5234 177.555 11.7083 177.555 10.7344C177.555 9.76562 177.719 8.94271 178.047 8.26562C178.375 7.58854 178.836 7.07292 179.43 6.71875C180.023 6.36458 180.716 6.1875 181.508 6.1875ZM181.508 7.57031C180.93 7.57031 180.461 7.75781 180.102 8.13281C179.747 8.50781 179.539 9.05729 179.477 9.78125H183.414C183.409 9.34896 183.336 8.96615 183.195 8.63281C183.06 8.29948 182.852 8.03906 182.57 7.85156C182.294 7.66406 181.94 7.57031 181.508 7.57031ZM193.094 12.5312C193.094 13.099 192.956 13.5781 192.68 13.9688C192.404 14.3594 192 14.6562 191.469 14.8594C190.943 15.0573 190.297 15.1562 189.531 15.1562C188.927 15.1562 188.406 15.112 187.969 15.0234C187.536 14.9401 187.128 14.8099 186.742 14.6328V13.0469C187.154 13.2396 187.615 13.4062 188.125 13.5469C188.641 13.6875 189.128 13.7578 189.586 13.7578C190.19 13.7578 190.625 13.6641 190.891 13.4766C191.156 13.2839 191.289 13.0286 191.289 12.7109C191.289 12.5234 191.234 12.3568 191.125 12.2109C191.021 12.0599 190.823 11.9062 190.531 11.75C190.245 11.5885 189.823 11.3958 189.266 11.1719C188.719 10.9531 188.258 10.7344 187.883 10.5156C187.508 10.2969 187.224 10.0339 187.031 9.72656C186.839 9.41406 186.742 9.01562 186.742 8.53125C186.742 7.76562 187.044 7.1849 187.648 6.78906C188.258 6.38802 189.062 6.1875 190.062 6.1875C190.594 6.1875 191.094 6.24219 191.562 6.35156C192.036 6.45573 192.5 6.60938 192.953 6.8125L192.375 8.19531C191.984 8.02344 191.591 7.88281 191.195 7.77344C190.805 7.65885 190.406 7.60156 190 7.60156C189.526 7.60156 189.164 7.67448 188.914 7.82031C188.669 7.96615 188.547 8.17448 188.547 8.44531C188.547 8.64844 188.607 8.82031 188.727 8.96094C188.846 9.10156 189.052 9.24219 189.344 9.38281C189.641 9.52344 190.052 9.69792 190.578 9.90625C191.094 10.1042 191.539 10.3125 191.914 10.5312C192.294 10.7448 192.586 11.0078 192.789 11.3203C192.992 11.6328 193.094 12.0365 193.094 12.5312ZM200.891 12.5312C200.891 13.099 200.753 13.5781 200.477 13.9688C200.201 14.3594 199.797 14.6562 199.266 14.8594C198.74 15.0573 198.094 15.1562 197.328 15.1562C196.724 15.1562 196.203 15.112 195.766 15.0234C195.333 14.9401 194.924 14.8099 194.539 14.6328V13.0469C194.951 13.2396 195.411 13.4062 195.922 13.5469C196.438 13.6875 196.924 13.7578 197.383 13.7578C197.987 13.7578 198.422 13.6641 198.688 13.4766C198.953 13.2839 199.086 13.0286 199.086 12.7109C199.086 12.5234 199.031 12.3568 198.922 12.2109C198.818 12.0599 198.62 11.9062 198.328 11.75C198.042 11.5885 197.62 11.3958 197.062 11.1719C196.516 10.9531 196.055 10.7344 195.68 10.5156C195.305 10.2969 195.021 10.0339 194.828 9.72656C194.635 9.41406 194.539 9.01562 194.539 8.53125C194.539 7.76562 194.841 7.1849 195.445 6.78906C196.055 6.38802 196.859 6.1875 197.859 6.1875C198.391 6.1875 198.891 6.24219 199.359 6.35156C199.833 6.45573 200.297 6.60938 200.75 6.8125L200.172 8.19531C199.781 8.02344 199.388 7.88281 198.992 7.77344C198.602 7.65885 198.203 7.60156 197.797 7.60156C197.323 7.60156 196.961 7.67448 196.711 7.82031C196.466 7.96615 196.344 8.17448 196.344 8.44531C196.344 8.64844 196.404 8.82031 196.523 8.96094C196.643 9.10156 196.849 9.24219 197.141 9.38281C197.438 9.52344 197.849 9.69792 198.375 9.90625C198.891 10.1042 199.336 10.3125 199.711 10.5312C200.091 10.7448 200.383 11.0078 200.586 11.3203C200.789 11.6328 200.891 12.0365 200.891 12.5312ZM206.359 11.4375V9.96094H213.078V11.4375H206.359ZM221.062 15.1562C220.651 15.1562 220.26 15.1276 219.891 15.0703C219.521 15.0182 219.182 14.9453 218.875 14.8516C218.568 14.7526 218.305 14.6432 218.086 14.5234V12.4219C218.471 12.6406 218.898 12.8255 219.367 12.9766C219.836 13.1224 220.326 13.1953 220.836 13.1953C221.315 13.1953 221.719 13.1354 222.047 13.0156C222.375 12.8958 222.638 12.737 222.836 12.5391C223.034 12.3359 223.177 12.112 223.266 11.8672C223.354 11.6224 223.398 11.375 223.398 11.125C223.398 10.724 223.273 10.3802 223.023 10.0938C222.773 9.80208 222.315 9.65625 221.648 9.65625C221.331 9.65625 221.021 9.6849 220.719 9.74219C220.422 9.79948 220.177 9.85677 219.984 9.91406L219.172 9.30469L220.789 3.57812H226.688L226.258 5.625H222.438L221.75 7.91406C221.875 7.88802 222.021 7.86198 222.188 7.83594C222.354 7.8099 222.539 7.79688 222.742 7.79688C223.32 7.79688 223.841 7.90625 224.305 8.125C224.773 8.34375 225.143 8.67708 225.414 9.125C225.69 9.57292 225.828 10.1458 225.828 10.8438C225.828 11.4375 225.734 11.9948 225.547 12.5156C225.359 13.0365 225.07 13.4948 224.68 13.8906C224.294 14.2865 223.802 14.5964 223.203 14.8203C222.604 15.0443 221.891 15.1562 221.062 15.1562ZM228.492 15L236.992 3.57812H238.828L230.367 15H228.492ZM229.789 10.5859C229.07 10.5859 228.523 10.3672 228.148 9.92969C227.773 9.49219 227.586 8.8776 227.586 8.08594C227.586 7.71094 227.62 7.3099 227.688 6.88281C227.76 6.45573 227.875 6.03906 228.031 5.63281C228.188 5.22135 228.391 4.84896 228.641 4.51562C228.896 4.18229 229.206 3.91667 229.57 3.71875C229.94 3.51562 230.372 3.41406 230.867 3.41406C231.581 3.41406 232.13 3.625 232.516 4.04688C232.906 4.46354 233.102 5.08073 233.102 5.89844C233.102 6.26302 233.065 6.65625 232.992 7.07812C232.924 7.5 232.812 7.91927 232.656 8.33594C232.5 8.7474 232.292 9.1224 232.031 9.46094C231.776 9.79948 231.464 10.0729 231.094 10.2812C230.724 10.4844 230.289 10.5859 229.789 10.5859ZM229.938 8.96875C230.089 8.96875 230.229 8.90104 230.359 8.76562C230.49 8.63021 230.604 8.45052 230.703 8.22656C230.807 7.9974 230.893 7.74479 230.961 7.46875C231.034 7.1875 231.089 6.90365 231.125 6.61719C231.161 6.32552 231.18 6.05208 231.18 5.79688C231.18 5.54167 231.143 5.35417 231.07 5.23438C230.997 5.10938 230.885 5.04688 230.734 5.04688C230.594 5.04688 230.461 5.11198 230.336 5.24219C230.211 5.36719 230.096 5.53906 229.992 5.75781C229.893 5.97135 229.805 6.21615 229.727 6.49219C229.654 6.76823 229.596 7.05469 229.555 7.35156C229.518 7.64844 229.5 7.9375 229.5 8.21875C229.5 8.46354 229.536 8.65104 229.609 8.78125C229.682 8.90625 229.792 8.96875 229.938 8.96875ZM236.547 15.1406C235.802 15.1406 235.24 14.9349 234.859 14.5234C234.479 14.112 234.289 13.5339 234.289 12.7891C234.289 12.3411 234.326 11.8906 234.398 11.4375C234.477 10.9792 234.596 10.5443 234.758 10.1328C234.919 9.71615 235.128 9.34635 235.383 9.02344C235.638 8.70052 235.945 8.44531 236.305 8.25781C236.669 8.07031 237.091 7.97656 237.57 7.97656C238.284 7.97656 238.833 8.18229 239.219 8.59375C239.609 9.00521 239.805 9.60417 239.805 10.3906C239.805 10.776 239.768 11.1875 239.695 11.625C239.628 12.0573 239.516 12.4818 239.359 12.8984C239.203 13.3151 238.997 13.6927 238.742 14.0312C238.492 14.3698 238.185 14.6406 237.82 14.8438C237.456 15.0417 237.031 15.1406 236.547 15.1406ZM236.641 13.5312C236.792 13.5312 236.932 13.4635 237.062 13.3281C237.193 13.1927 237.307 13.013 237.406 12.7891C237.51 12.5599 237.599 12.3073 237.672 12.0312C237.745 11.75 237.799 11.4661 237.836 11.1797C237.872 10.888 237.891 10.6146 237.891 10.3594C237.891 10.1042 237.852 9.91667 237.773 9.79688C237.701 9.67188 237.589 9.60938 237.438 9.60938C237.297 9.60938 237.164 9.67448 237.039 9.80469C236.914 9.92969 236.799 10.1016 236.695 10.3203C236.596 10.5339 236.51 10.7786 236.438 11.0547C236.365 11.3255 236.307 11.6094 236.266 11.9062C236.229 12.2031 236.211 12.4922 236.211 12.7734C236.211 13.0234 236.245 13.2135 236.312 13.3438C236.385 13.4688 236.495 13.5312 236.641 13.5312ZM249.75 15.1562C248.823 15.1562 248.044 14.9766 247.414 14.6172C246.789 14.2578 246.315 13.7526 245.992 13.1016C245.669 12.4453 245.508 11.6797 245.508 10.8047C245.508 10.2109 245.56 9.61719 245.664 9.02344C245.773 8.42969 245.935 7.85677 246.148 7.30469C246.367 6.7526 246.641 6.23958 246.969 5.76562C247.302 5.29167 247.693 4.8776 248.141 4.52344C248.589 4.16927 249.096 3.89323 249.664 3.69531C250.232 3.4974 250.862 3.39844 251.555 3.39844C252.94 3.39844 253.982 3.78906 254.68 4.57031C255.383 5.34635 255.734 6.38021 255.734 7.67188C255.734 8.29167 255.682 8.90625 255.578 9.51562C255.479 10.125 255.323 10.7083 255.109 11.2656C254.901 11.8229 254.633 12.3385 254.305 12.8125C253.982 13.2812 253.599 13.6927 253.156 14.0469C252.714 14.3958 252.208 14.6693 251.641 14.8672C251.078 15.0599 250.448 15.1562 249.75 15.1562ZM249.922 13.125C250.234 13.125 250.534 13.0677 250.82 12.9531C251.107 12.8385 251.375 12.6745 251.625 12.4609C251.875 12.2422 252.102 11.9766 252.305 11.6641C252.513 11.3464 252.69 10.9896 252.836 10.5938C252.982 10.1927 253.094 9.7526 253.172 9.27344C253.255 8.79427 253.297 8.28125 253.297 7.73438C253.297 7.03125 253.133 6.46875 252.805 6.04688C252.482 5.625 252 5.41406 251.359 5.41406C251.031 5.41406 250.716 5.47917 250.414 5.60938C250.117 5.73958 249.841 5.92448 249.586 6.16406C249.336 6.40365 249.109 6.6875 248.906 7.01562C248.703 7.34375 248.529 7.70833 248.383 8.10938C248.237 8.51042 248.125 8.9375 248.047 9.39062C247.974 9.84375 247.938 10.3151 247.938 10.8047C247.938 11.3099 248.016 11.737 248.172 12.0859C248.328 12.4297 248.555 12.6901 248.852 12.8672C249.148 13.0391 249.505 13.125 249.922 13.125ZM255.883 18.8438C255.633 18.8438 255.385 18.8229 255.141 18.7812C254.891 18.7448 254.685 18.7005 254.523 18.6484V16.7578C254.69 16.8151 254.844 16.8568 254.984 16.8828C255.125 16.9089 255.271 16.9219 255.422 16.9219C255.74 16.9219 256.018 16.8151 256.258 16.6016C256.497 16.3932 256.667 16.0573 256.766 15.5938L258.359 8.05469H257.086L257.32 6.92188L258.75 6.26562L258.891 5.60938C259.005 5.07812 259.156 4.63021 259.344 4.26562C259.536 3.90104 259.766 3.60938 260.031 3.39062C260.297 3.16667 260.602 3.00521 260.945 2.90625C261.294 2.80729 261.682 2.75781 262.109 2.75781C262.469 2.75781 262.799 2.79167 263.102 2.85938C263.409 2.92708 263.69 3.02083 263.945 3.14062L263.32 4.89062C263.169 4.82292 263.01 4.76562 262.844 4.71875C262.677 4.67188 262.49 4.64844 262.281 4.64844C261.984 4.64844 261.745 4.7526 261.562 4.96094C261.38 5.16927 261.258 5.44271 261.195 5.78125L261.102 6.26562H264.188L264.328 5.60938C264.448 5.07812 264.602 4.63021 264.789 4.26562C264.977 3.90104 265.203 3.60938 265.469 3.39062C265.734 3.16667 266.039 3.00521 266.383 2.90625C266.732 2.80729 267.12 2.75781 267.547 2.75781C267.906 2.75781 268.237 2.79167 268.539 2.85938C268.846 2.92708 269.128 3.02083 269.383 3.14062L268.766 4.89062C268.615 4.82292 268.456 4.76562 268.289 4.71875C268.122 4.67188 267.932 4.64844 267.719 4.64844C267.427 4.64844 267.19 4.7526 267.008 4.96094C266.826 5.16927 266.701 5.44271 266.633 5.78125L266.539 6.26562H268.25L267.867 8.05469H266.156L264.477 15.9453C264.367 16.4766 264.19 16.9609 263.945 17.3984C263.701 17.8411 263.365 18.1927 262.938 18.4531C262.516 18.7135 261.977 18.8438 261.32 18.8438C261.076 18.8438 260.828 18.8229 260.578 18.7812C260.328 18.7448 260.122 18.7005 259.961 18.6484V16.7578C260.128 16.8151 260.281 16.8568 260.422 16.8828C260.562 16.9089 260.708 16.9219 260.859 16.9219C261.182 16.9219 261.461 16.8151 261.695 16.6016C261.935 16.3932 262.104 16.0573 262.203 15.5938L263.805 8.05469H260.711L259.031 15.9453C258.922 16.4766 258.745 16.9609 258.5 17.3984C258.26 17.8411 257.927 18.1927 257.5 18.4531C257.078 18.7135 256.539 18.8438 255.883 18.8438ZM270.836 15L276.82 3.57812H279.734L280.883 15H278.562L278.375 12.2812H274.68L273.336 15H270.836ZM275.656 10.25H278.258L278.055 7.30469C278.034 6.99219 278.013 6.67708 277.992 6.35938C277.971 6.04167 277.966 5.71615 277.977 5.38281H277.938C277.839 5.66927 277.724 5.95573 277.594 6.24219C277.464 6.52865 277.318 6.83333 277.156 7.15625L275.656 10.25ZM283.219 15L282.82 6.26562H285.016L285.047 10.1328C285.047 10.5599 285.042 10.9844 285.031 11.4062C285.026 11.8281 285.003 12.2839 284.961 12.7734H285.031C285.104 12.5078 285.198 12.2135 285.312 11.8906C285.427 11.5625 285.536 11.2656 285.641 11C285.745 10.7292 285.818 10.5469 285.859 10.4531L287.664 6.26562H290.227V10.4531C290.227 10.8177 290.224 11.1875 290.219 11.5625C290.214 11.9375 290.19 12.3411 290.148 12.7734H290.227C290.305 12.5339 290.398 12.2474 290.508 11.9141C290.617 11.5807 290.729 11.2526 290.844 10.9297C290.964 10.6068 291.068 10.3411 291.156 10.1328L292.867 6.26562H295.266L291.125 15H288.547L288.5 10.9375C288.5 10.7188 288.503 10.4505 288.508 10.1328C288.513 9.8151 288.521 9.49219 288.531 9.16406C288.547 8.83073 288.562 8.53646 288.578 8.28125H288.484C288.396 8.53646 288.297 8.82031 288.188 9.13281C288.078 9.44531 287.969 9.7474 287.859 10.0391C287.755 10.3307 287.659 10.5755 287.57 10.7734L285.75 15H283.219ZM297.625 15.1562C297.203 15.1562 296.805 15.0521 296.43 14.8438C296.055 14.6354 295.747 14.2995 295.508 13.8359C295.273 13.3724 295.156 12.7578 295.156 11.9922C295.156 11.4193 295.216 10.8516 295.336 10.2891C295.461 9.72656 295.638 9.19531 295.867 8.69531C296.102 8.1901 296.383 7.74479 296.711 7.35938C297.044 6.96875 297.419 6.66146 297.836 6.4375C298.258 6.21354 298.714 6.10156 299.203 6.10156C299.573 6.10156 299.896 6.15625 300.172 6.26562C300.448 6.36979 300.685 6.51823 300.883 6.71094C301.081 6.90365 301.242 7.1276 301.367 7.38281H301.43L301.875 6.26562H303.688L301.828 15H300.07L300.18 13.8672H300.117C299.909 14.1224 299.682 14.3464 299.438 14.5391C299.193 14.7318 298.922 14.8828 298.625 14.9922C298.328 15.1016 297.995 15.1562 297.625 15.1562ZM298.547 13.2578C298.87 13.2578 299.169 13.1328 299.445 12.8828C299.721 12.6276 299.958 12.2969 300.156 11.8906C300.354 11.4844 300.495 11.0547 300.578 10.6016C300.62 10.3932 300.648 10.1849 300.664 9.97656C300.685 9.76302 300.695 9.53385 300.695 9.28906C300.695 8.91927 300.596 8.61458 300.398 8.375C300.206 8.13021 299.94 8.00781 299.602 8.00781C299.372 8.00781 299.154 8.08333 298.945 8.23438C298.742 8.38021 298.555 8.58333 298.383 8.84375C298.211 9.09896 298.06 9.39323 297.93 9.72656C297.805 10.0547 297.708 10.4036 297.641 10.7734C297.573 11.1432 297.539 11.513 297.539 11.8828C297.539 12.3359 297.628 12.6797 297.805 12.9141C297.982 13.1432 298.229 13.2578 298.547 13.2578ZM304.258 15L306.109 6.26562H308.461L306.609 15H304.258ZM307.664 5.17969C307.331 5.17969 307.049 5.10677 306.82 4.96094C306.596 4.8151 306.484 4.56771 306.484 4.21875C306.484 3.91667 306.539 3.66406 306.648 3.46094C306.763 3.25781 306.927 3.10417 307.141 3C307.354 2.89583 307.609 2.84375 307.906 2.84375C308.219 2.84375 308.49 2.91146 308.719 3.04688C308.953 3.18229 309.07 3.42708 309.07 3.78125C309.07 4.19792 308.956 4.53646 308.727 4.79688C308.497 5.05208 308.143 5.17969 307.664 5.17969ZM311.922 15.1562C311.229 15.1562 310.677 15.0104 310.266 14.7188C309.854 14.4271 309.648 13.901 309.648 13.1406C309.648 13.0156 309.656 12.8802 309.672 12.7344C309.688 12.5833 309.711 12.4271 309.742 12.2656L310.641 8.05469H309.453L309.68 6.90625L311.211 6.25L312.242 4.40625H313.758L313.375 6.26562H315.586L315.195 8.05469H312.992L312.094 12.2656C312.078 12.3438 312.065 12.4219 312.055 12.5C312.049 12.5729 312.047 12.6328 312.047 12.6797C312.047 12.888 312.109 13.0365 312.234 13.125C312.359 13.2135 312.526 13.2578 312.734 13.2578C312.948 13.2578 313.151 13.2344 313.344 13.1875C313.542 13.1354 313.76 13.0677 314 12.9844V14.7422C313.75 14.862 313.448 14.9609 313.094 15.0391C312.745 15.1172 312.354 15.1562 311.922 15.1562ZM318.078 15.1562C317.521 15.1562 317.034 15.1172 316.617 15.0391C316.206 14.9609 315.82 14.8307 315.461 14.6484V12.7109C315.852 12.9349 316.253 13.1094 316.664 13.2344C317.081 13.3542 317.51 13.4141 317.953 13.4141C318.198 13.4141 318.427 13.3802 318.641 13.3125C318.859 13.2448 319.036 13.1406 319.172 13C319.307 12.8594 319.375 12.6823 319.375 12.4688C319.375 12.3229 319.341 12.1927 319.273 12.0781C319.206 11.9635 319.076 11.8385 318.883 11.7031C318.695 11.5625 318.422 11.3932 318.062 11.1953C317.703 10.9922 317.396 10.7839 317.141 10.5703C316.891 10.3568 316.698 10.1146 316.562 9.84375C316.432 9.57292 316.367 9.25521 316.367 8.89062C316.367 8.28646 316.5 7.77865 316.766 7.36719C317.031 6.95052 317.411 6.63542 317.906 6.42188C318.406 6.20833 319.003 6.10156 319.695 6.10156C320.201 6.10156 320.688 6.15885 321.156 6.27344C321.625 6.38802 322.083 6.57812 322.531 6.84375L321.758 8.52344C321.451 8.33594 321.122 8.17969 320.773 8.05469C320.43 7.92969 320.086 7.86719 319.742 7.86719C319.487 7.86719 319.258 7.92708 319.055 8.04688C318.852 8.16667 318.75 8.35156 318.75 8.60156C318.75 8.73698 318.786 8.86198 318.859 8.97656C318.932 9.08594 319.055 9.19792 319.227 9.3125C319.404 9.42708 319.641 9.5625 319.938 9.71875C320.292 9.90104 320.604 10.1042 320.875 10.3281C321.151 10.5469 321.367 10.8021 321.523 11.0938C321.68 11.3802 321.758 11.7214 321.758 12.1172C321.758 12.7839 321.607 13.3438 321.305 13.7969C321.003 14.2448 320.576 14.5833 320.023 14.8125C319.477 15.0417 318.828 15.1562 318.078 15.1562ZM323.961 11.2109L325.258 3.57812H327.914L325.977 11.2109H323.961ZM324.266 15.2109C323.823 15.2109 323.51 15.0964 323.328 14.8672C323.146 14.638 323.055 14.3828 323.055 14.1016C323.055 13.7161 323.174 13.362 323.414 13.0391C323.654 12.7161 324.065 12.5547 324.648 12.5547C325.003 12.5547 325.286 12.6536 325.5 12.8516C325.714 13.0495 325.82 13.3281 325.82 13.6875C325.82 14.1302 325.68 14.4948 325.398 14.7812C325.117 15.0677 324.74 15.2109 324.266 15.2109Z" fill="white"/>
</svg>
