<svg width="186" height="50" viewBox="0 0 186 50" fill="none" xmlns="http://www.w3.org/2000/svg">
<path d="M68.854 33.1239C70.0907 33.1239 71.3512 33.1477 72.588 33.1477C73.6106 33.1477 74.6095 33.1002 75.6322 33.0526C76.8689 32.9337 77.9392 32.8148 79.0808 32.2915C80.0797 31.8634 80.8883 31.2213 81.578 30.3651C83.3142 28.2008 83.3618 25.6322 83.3618 24.7047C83.3618 21.4939 82.0537 18.4735 78.9381 17.2367C77.9154 16.8324 76.9165 16.7135 75.87 16.5946C74.8474 16.547 73.8247 16.4994 72.8258 16.4757C70.5426 16.4043 68.2594 16.4519 66 16.4757V33.1239H68.854ZM69.7578 19.5913H74.1577C75.2279 19.6626 76.3695 19.7102 77.3684 20.3048C77.8203 20.5426 78.177 20.8993 78.4862 21.3037C79.4375 22.6355 79.4137 24.3004 79.4137 24.776C79.4137 25.3944 79.39 28.3911 76.9879 29.5327C76.1554 29.9132 75.4182 29.9608 74.4906 30.0321H69.7578V19.5913Z" fill="#2D3F60"/>
<path d="M94.0168 16.4519C93.0893 16.4281 92.138 16.4519 91.2104 16.4519C89.4267 16.4757 87.6667 16.4757 85.883 16.4757V33.1239H89.6645V26.9403H93.6125C94.4687 26.9165 95.2536 26.9165 95.9195 27.5587C96.3 27.9154 96.4427 28.2722 96.6092 29.2235C96.7995 30.2937 96.9184 31.4353 97.2751 32.4342C97.3703 32.6721 97.4654 32.8861 97.5605 33.1239H101.437C101.057 32.1726 100.652 31.1261 100.486 30.1035C100.296 28.9857 100.296 27.8678 99.8437 26.8214C99.487 26.0127 99.1302 25.7273 98.393 25.2517C98.7735 25.0138 99.154 24.776 99.5108 24.4431C100.819 23.2539 100.962 21.708 100.962 21.1134C100.962 20.6139 100.914 19.6388 100.177 18.5924C99.0589 16.9989 97.5843 16.7611 96.9422 16.6659C96.4903 16.5946 96.0384 16.547 95.5865 16.5232L94.0168 16.4519ZM89.6407 19.4961H94.4925C95.3725 19.5199 96.1811 19.5437 96.7757 20.281C96.9897 20.5664 97.2038 20.9945 97.2038 21.7555C97.2038 22.0647 97.2038 22.8496 96.4903 23.3966C95.9195 23.8247 95.206 23.8485 94.4925 23.896L89.6407 23.9674V19.4961Z" fill="#2D3F60"/>
<path d="M104.041 29.6278V33.1239H107.561V29.6278H104.041Z" fill="#2D3F60"/>
<path d="M118.965 26.536C119.512 26.6787 120.297 26.8452 120.772 27.1306C121.319 27.4873 121.414 28.0581 121.414 28.3435C121.414 28.7003 121.272 29.057 121.034 29.3186C120.844 29.5564 120.63 29.6991 120.534 29.7705C119.607 30.3651 117.942 30.3651 117.776 30.3651C115.825 30.3651 114.66 29.6516 114.161 28.9857C113.78 28.5338 113.661 28.1057 113.495 27.5587L109.737 27.8916C109.808 28.6765 109.903 29.1997 110.26 29.937C111.116 31.6256 113.233 33.4331 117.395 33.4331C121.153 33.4331 123.151 32.4342 124.268 31.1261C125.291 29.9608 125.386 28.5576 125.386 27.9868C125.386 25.656 123.864 24.562 123.127 24.1339C122.485 23.8009 121.795 23.5869 121.081 23.3966L116.467 22.469C115.278 22.2312 114.684 22.0409 114.351 21.4701C114.161 21.1847 114.137 20.9231 114.137 20.7804C114.137 20.3523 114.446 20.0194 114.541 19.9242C115.183 19.2345 116.491 19.0443 117.395 19.0443C117.609 19.0443 118.87 19.0918 119.821 19.4961C120.63 19.8529 120.915 20.3523 121.319 21.2085L125.006 20.8042C124.839 19.948 124.72 19.6626 124.482 19.2583C124.149 18.6637 123.698 18.1405 123.174 17.7124C121.866 16.6421 120.368 16.214 118.751 16.1189C118.37 16.0951 117.966 16.0714 117.562 16.0714C114.493 16.0714 112.638 16.9989 111.711 17.9027C110.474 19.0918 110.331 20.5664 110.331 21.1847C110.331 21.9696 110.545 22.5642 110.641 22.8496C111.307 24.5144 112.876 25.2755 114.493 25.6798C114.85 25.7749 115.231 25.8463 115.587 25.9176L118.965 26.536Z" fill="#2D3F60"/>
<path d="M127.468 24.6333C127.42 28.3911 129.418 30.6029 130.512 31.4829C132.795 33.338 135.649 33.4569 136.6 33.4569C139.217 33.4569 141.952 32.5056 143.735 30.3651C145.519 28.2008 145.686 25.6084 145.686 24.6571C145.686 20.9231 143.664 18.7826 142.594 17.9264C140.929 16.5946 138.765 16 136.6 16C135.459 16 132.058 16.1665 129.656 18.8302C127.682 21.0183 127.491 23.6106 127.468 24.6333ZM131.249 24.4906C131.297 23.5155 131.582 20.7329 134.341 19.5675C134.769 19.401 135.506 19.1394 136.648 19.1394C139.787 19.1394 141.072 21.2561 141.5 22.3739C141.904 23.4204 141.928 24.3241 141.928 24.7522C141.928 26.9165 140.929 28.8905 138.931 29.8181C137.956 30.2699 136.957 30.3175 136.577 30.3175C135.792 30.3175 133.437 30.1272 132.105 27.9868C131.202 26.5835 131.225 25.0852 131.249 24.4906Z" fill="#2D3F60"/>
<path d="M148.362 16.5232V33.1715H151.715V21.2085C152.428 22.1599 153.118 23.1112 153.832 24.0387C154.926 25.4419 156.091 26.8214 157.209 28.2008C158.565 29.8656 159.873 31.5305 161.181 33.1953H164.82V16.5232H161.49V28.2959C160.158 26.5598 158.826 24.8236 157.471 23.1112C155.734 20.8993 153.974 18.7113 152.214 16.547L148.362 16.5232Z" fill="#2D3F60"/>
<path d="M167.579 24.6333C167.531 28.3911 169.529 30.6029 170.623 31.4829C172.906 33.338 175.76 33.4569 176.711 33.4569C179.328 33.4569 182.063 32.5056 183.846 30.3651C185.63 28.2008 185.797 25.6084 185.797 24.6571C185.797 20.9231 183.775 18.7826 182.705 17.9264C181.04 16.5946 178.876 16 176.711 16C175.57 16 172.169 16.1665 169.767 18.8302C167.793 21.0183 167.602 23.6106 167.579 24.6333ZM171.36 24.4906C171.408 23.5155 171.693 20.7329 174.452 19.5675C174.88 19.401 175.617 19.1394 176.759 19.1394C179.898 19.1394 181.183 21.2561 181.611 22.3739C182.015 23.4204 182.039 24.3241 182.039 24.7522C182.039 26.9165 181.04 28.8905 179.042 29.8181C178.067 30.2699 177.068 30.3175 176.688 30.3175C175.903 30.3175 173.548 30.1272 172.216 27.9868C171.313 26.5835 171.336 25.0852 171.36 24.4906Z" fill="#2D3F60"/>
<path d="M29.49 29.4916C28.3399 30.6416 26.7523 31.3505 24.9982 31.3505C21.49 31.3505 18.6474 28.508 18.6474 25.0001C18.6474 21.4922 21.49 18.6498 24.9982 18.6498C26.7523 18.6498 28.3399 19.3622 29.49 20.5086L34.1664 15.8326C31.8192 13.4856 28.5787 12.0354 24.9982 12.0354C17.8372 12.0354 12.0326 17.8397 12.0326 25.0001C12.0326 32.1605 17.8372 37.9648 24.9982 37.9648C28.5787 37.9648 31.8192 36.5146 34.1664 34.1676L29.49 29.4916Z" fill="#1565D8"/>
<path d="M24.9982 42.9842C15.0633 42.9842 7.01264 34.9306 7.01264 25C7.01264 15.0694 15.0669 7.01578 24.9982 7.01578C29.9638 7.01578 34.4629 9.03008 37.7179 12.2848L42.6799 7.32316C38.1555 2.79907 31.906 0 25.0018 0C11.1935 0 0 11.1927 0 25C0 38.8073 11.1935 50 25.0018 50C31.906 50 38.1555 47.2009 42.6799 42.6768L37.7179 37.7152C34.4593 40.9735 29.9638 42.9842 24.9982 42.9842Z" fill="#1565D8"/>
<path d="M36.7884 30.3919C37.5406 28.7501 37.9638 26.9274 37.9638 24.9999C37.9638 23.0724 37.5406 21.2533 36.7884 19.6079L31.3996 24.9999L36.7884 30.3919Z" fill="#2D3F60"/>
<path d="M45.5841 39.1835C48.3689 35.1512 50 30.2691 50 25C50 19.731 48.3652 14.8453 45.5841 10.8166L40.5063 15.894C42.0796 18.5665 42.9837 21.6766 42.9837 25C42.9837 28.3235 42.0796 31.4372 40.5063 34.1061L45.5841 39.1835Z" fill="#2D3F60"/>
</svg>
