<svg width="24" height="24" viewBox="0 0 24 24" fill="none" xmlns="http://www.w3.org/2000/svg">
<g clip-path="url(#clip0_4435_3318)">
<path d="M12 8.01538C12.4626 8.01538 12.8379 8.39072 12.8379 8.85327V18.2283C12.8379 18.6908 12.4626 19.0662 12 19.0662C11.5374 19.0662 11.1621 18.6908 11.1621 18.2283V8.85327C11.1621 8.39072 11.5374 8.01538 12 8.01538Z" fill="#222222" stroke="#F8F8F8" stroke-width="0.2"/>
<path d="M2.8125 0.515381H6.375C8.11827 0.515381 9.78206 1.21832 10.9932 2.45386L11.2295 2.70776C11.6204 3.15204 12.2725 3.1731 12.6904 2.78979L12.7705 2.70776C13.9962 1.31483 15.7655 0.515381 17.625 0.515381H21.1875C22.6831 0.515381 23.9004 1.73269 23.9004 3.22827V18.2283C23.9004 19.7239 22.6831 20.9412 21.1875 20.9412H17.625C16.3332 20.9412 15.1003 21.4607 14.2031 22.3757L14.0283 22.5642C12.9791 23.7566 11.1658 23.7867 10.0752 22.6755L9.97168 22.5642C9.06379 21.5325 7.75302 20.9412 6.375 20.9412H2.8125C1.31692 20.9412 0.0996104 19.7239 0.0996094 18.2283V3.22827C0.0996094 1.73269 1.31692 0.515381 2.8125 0.515381ZM2.8125 2.19116C2.24033 2.19116 1.77539 2.65611 1.77539 3.22827V18.2283C1.77539 18.8004 2.24033 19.2654 2.8125 19.2654H6.375C8.11826 19.2654 9.78203 19.9683 10.9932 21.2039L11.2295 21.4578C11.6203 21.902 12.2725 21.9232 12.6904 21.5398L12.7705 21.4578C13.9962 20.0648 15.7655 19.2654 17.625 19.2654H21.1875C21.7597 19.2654 22.2246 18.8004 22.2246 18.2283V3.22827C22.2246 2.65611 21.7597 2.19116 21.1875 2.19116H17.625C16.3332 2.19116 15.1003 2.71074 14.2031 3.62573L14.0283 3.81421C12.9789 5.0068 11.1657 5.03652 10.0752 3.92554L9.97168 3.81421C9.0638 2.78255 7.75302 2.19116 6.375 2.19116H2.8125Z" fill="#222222" stroke="#F8F8F8" stroke-width="0.2"/>
<path d="M17.4375 6.14038H19.3125C19.775 6.14038 20.1504 6.51571 20.1504 6.97827C20.1504 7.44082 19.7751 7.81616 19.3125 7.81616H17.4375C16.9578 7.81618 16.4866 7.88534 16.0342 8.02319L15.8408 8.08667C15.4308 8.23103 14.986 8.03743 14.8057 7.65405L14.7725 7.57495C14.6286 7.16608 14.8213 6.72055 15.2051 6.53979L15.2842 6.50659C15.9741 6.26367 16.6988 6.14041 17.4375 6.14038Z" fill="#222222" stroke="#F8F8F8" stroke-width="0.2"/>
<path d="M4.6875 6.14038H6.5625C7.20891 6.14038 7.84418 6.23533 8.45508 6.42163L8.71582 6.50659C9.12481 6.65064 9.35179 7.08036 9.25195 7.49292L9.22754 7.57495C9.08407 7.98243 8.6558 8.21091 8.24219 8.11108L8.15918 8.08667C7.64826 7.9068 7.11097 7.81616 6.5625 7.81616H4.6875C4.22495 7.81616 3.84961 7.44082 3.84961 6.97827C3.84961 6.51572 4.22495 6.14038 4.6875 6.14038Z" fill="#222222" stroke="#F8F8F8" stroke-width="0.2"/>
<path d="M17.4375 9.89038H19.3125C19.775 9.89038 20.1504 10.2657 20.1504 10.7283C20.1504 11.1908 19.7751 11.5662 19.3125 11.5662H17.4375C16.9578 11.5662 16.4866 11.6353 16.0342 11.7732L15.8408 11.8367C15.4308 11.981 14.986 11.7874 14.8057 11.4041L14.7725 11.325C14.6286 10.9161 14.8213 10.4705 15.2051 10.2898L15.2842 10.2566C15.9741 10.0137 16.6988 9.89041 17.4375 9.89038Z" fill="#222222" stroke="#F8F8F8" stroke-width="0.2"/>
<path d="M4.6875 9.89038H6.5625C7.20891 9.89038 7.84418 9.98533 8.45508 10.1716L8.71582 10.2566C9.12481 10.4006 9.35179 10.8304 9.25195 11.2429L9.22754 11.325C9.08407 11.7324 8.6558 11.9609 8.24219 11.8611L8.15918 11.8367C7.64826 11.6568 7.11097 11.5662 6.5625 11.5662H4.6875C4.22495 11.5662 3.84961 11.1908 3.84961 10.7283C3.84961 10.2657 4.22495 9.89038 4.6875 9.89038Z" fill="#222222" stroke="#F8F8F8" stroke-width="0.2"/>
<path d="M17.4375 13.6404H19.3125C19.775 13.6404 20.1504 14.0157 20.1504 14.4783C20.1504 14.9408 19.7751 15.3162 19.3125 15.3162H17.4375C16.9578 15.3162 16.4866 15.3853 16.0342 15.5232L15.8408 15.5867C15.4308 15.731 14.986 15.5374 14.8057 15.1541L14.7725 15.075C14.6286 14.6661 14.8213 14.2205 15.2051 14.0398L15.2842 14.0066C15.9741 13.7637 16.6988 13.6404 17.4375 13.6404Z" fill="#222222" stroke="#F8F8F8" stroke-width="0.2"/>
<path d="M4.6875 13.6404H6.5625C7.20891 13.6404 7.84418 13.7353 8.45508 13.9216L8.71582 14.0066C9.12481 14.1506 9.35179 14.5804 9.25195 14.9929L9.22754 15.075C9.08407 15.4824 8.6558 15.7109 8.24219 15.6111L8.15918 15.5867C7.64826 15.4068 7.11097 15.3162 6.5625 15.3162H4.6875C4.22495 15.3162 3.84961 14.9408 3.84961 14.4783C3.84961 14.0157 4.22495 13.6404 4.6875 13.6404Z" fill="#222222" stroke="#F8F8F8" stroke-width="0.2"/>
</g>
<defs>
<clipPath id="clip0_4435_3318">
<rect width="24" height="24" fill="white"/>
</clipPath>
</defs>
</svg>
