<svg width="28" height="35" viewBox="0 0 28 35" fill="none" xmlns="http://www.w3.org/2000/svg">
<g filter="url(#filter0_d_4449_2100)">
<path fill-rule="evenodd" clip-rule="evenodd" d="M18.5 20.0551C18.9832 20.0551 19.375 20.4468 19.375 20.9301V23.625C19.3742 24.321 19.0974 24.9882 18.6053 25.4803C18.1132 25.9724 17.446 26.2492 16.75 26.25H8C7.30404 26.2492 6.6368 25.9724 6.14468 25.4803C5.65257 24.9882 5.37576 24.321 5.375 23.625V4.375C5.37576 3.67904 5.65257 3.0118 6.14468 2.51968C6.6368 2.02757 7.30404 1.75076 8 1.75H16.75C17.446 1.75076 18.1132 2.02757 18.6053 2.51968C19.0974 3.0118 19.3742 3.67904 19.375 4.375V7.06991C19.375 7.55316 18.9832 7.94491 18.5 7.94491C18.0168 7.94491 17.625 7.55316 17.625 7.06991V4.375C17.6248 4.14298 17.5326 3.92051 17.3685 3.75645C17.2045 3.59239 16.982 3.50016 16.75 3.5H16.2423L15.8579 5.42175C15.8181 5.62001 15.7109 5.79838 15.5545 5.92657C15.3981 6.05476 15.2022 6.12488 15 6.125H9.75C9.54779 6.12488 9.35185 6.05476 9.19547 5.92657C9.03908 5.79838 8.93189 5.62001 8.89209 5.42175L8.50773 3.5H8C7.76798 3.50016 7.54551 3.59239 7.38145 3.75645C7.21739 3.92051 7.12516 4.14298 7.125 4.375V23.625C7.12516 23.857 7.21739 24.0795 7.38145 24.2435C7.54551 24.4076 7.76798 24.4998 8 24.5H16.75C16.982 24.4998 17.2045 24.4076 17.3685 24.2435C17.5326 24.0795 17.6248 23.857 17.625 23.625V20.9301C17.625 20.4468 18.0168 20.0551 18.5 20.0551ZM10.4669 4.375L10.292 3.5H14.458L14.2831 4.375H10.4669Z" fill="#2B394D"/>
<path fill-rule="evenodd" clip-rule="evenodd" d="M14.9335 23.0849C14.9775 22.9787 15.0001 22.8649 15 22.75C15.0001 22.6351 14.9775 22.5213 14.9335 22.4151C14.8896 22.3089 14.8251 22.2124 14.7439 22.1311C14.6626 22.0499 14.5661 21.9854 14.4599 21.9415C14.3537 21.8975 14.2399 21.8749 14.125 21.875H10.625C10.3929 21.875 10.1704 21.9672 10.0063 22.1313C9.84219 22.2954 9.75 22.5179 9.75 22.75C9.75 22.9821 9.84219 23.2046 10.0063 23.3687C10.1704 23.5328 10.3929 23.625 10.625 23.625H14.125C14.2399 23.6251 14.3537 23.6025 14.4599 23.5585C14.5661 23.5146 14.6626 23.4501 14.7439 23.3689C14.8251 23.2876 14.8896 23.1911 14.9335 23.0849Z" fill="#2B394D"/>
<path d="M22 13.4521C21.8663 12.4879 21.4198 11.5945 20.7294 10.9096C20.039 10.2246 19.143 9.78607 18.1794 9.6615C17.2157 9.53692 16.2379 9.73323 15.3966 10.2202C14.5553 10.7071 13.8971 11.4577 13.5234 12.3563M13.25 10.1647V12.3563H15.4375M13.25 14.5479C13.3837 15.5121 13.8302 16.4055 14.5206 17.0904C15.211 17.7754 16.107 18.2139 17.0706 18.3385C18.0343 18.4631 19.0121 18.2668 19.8534 17.7798C20.6947 17.2929 21.3529 16.5423 21.7266 15.6437M22 17.8353V15.6437H19.8125" stroke="#2B394D" stroke-width="1.8" stroke-linecap="round" stroke-linejoin="round"/>
</g>
<defs>
<filter id="filter0_d_4449_2100" x="-4" y="0" width="36" height="36" filterUnits="userSpaceOnUse" color-interpolation-filters="sRGB">
<feFlood flood-opacity="0" result="BackgroundImageFix"/>
<feColorMatrix in="SourceAlpha" type="matrix" values="0 0 0 0 0 0 0 0 0 0 0 0 0 0 0 0 0 0 127 0" result="hardAlpha"/>
<feOffset dy="4"/>
<feGaussianBlur stdDeviation="2"/>
<feComposite in2="hardAlpha" operator="out"/>
<feColorMatrix type="matrix" values="0 0 0 0 0 0 0 0 0 0 0 0 0 0 0 0 0 0 0.25 0"/>
<feBlend mode="normal" in2="BackgroundImageFix" result="effect1_dropShadow_4449_2100"/>
<feBlend mode="normal" in="SourceGraphic" in2="effect1_dropShadow_4449_2100" result="shape"/>
</filter>
</defs>
</svg>
