<svg width="28" height="28" viewBox="0 0 28 28" fill="none" xmlns="http://www.w3.org/2000/svg">
<g clip-path="url(#clip0_4446_2011)">
<g clip-path="url(#clip1_4446_2011)">
<path d="M28.375 19.75H27.75V15.5273C27.75 15.0312 27.5508 14.5547 27.1992 14.2031L23.2969 10.3008C22.9453 9.94922 22.4688 9.75 21.9727 9.75H20.25V7.875C20.25 6.83984 19.4102 6 18.375 6H8.375C7.33984 6 6.5 6.83984 6.5 7.875V9.75H4.3125C4.14062 9.75 4 9.89062 4 10.0625V10.6875C4 10.8594 4.14062 11 4.3125 11H14.9375C15.1094 11 15.25 11.1406 15.25 11.3125V11.9375C15.25 12.1094 15.1094 12.25 14.9375 12.25H5.5625C5.39062 12.25 5.25 12.3906 5.25 12.5625V13.1875C5.25 13.3594 5.39062 13.5 5.5625 13.5H13.6875C13.8594 13.5 14 13.6406 14 13.8125V14.4375C14 14.6094 13.8594 14.75 13.6875 14.75H4.3125C4.14062 14.75 4 14.8906 4 15.0625V15.6875C4 15.8594 4.14062 16 4.3125 16H12.4375C12.6094 16 12.75 16.1406 12.75 16.3125V16.9375C12.75 17.1094 12.6094 17.25 12.4375 17.25H6.5V22.25C6.5 24.3203 8.17969 26 10.25 26C12.3203 26 14 24.3203 14 22.25H19C19 24.3203 20.6797 26 22.75 26C24.8203 26 26.5 24.3203 26.5 22.25H28.375C28.7188 22.25 29 21.9688 29 21.625V20.375C29 20.0312 28.7188 19.75 28.375 19.75ZM10.25 24.125C9.21484 24.125 8.375 23.2852 8.375 22.25C8.375 21.2148 9.21484 20.375 10.25 20.375C11.2852 20.375 12.125 21.2148 12.125 22.25C12.125 23.2852 11.2852 24.125 10.25 24.125ZM22.75 24.125C21.7148 24.125 20.875 23.2852 20.875 22.25C20.875 21.2148 21.7148 20.375 22.75 20.375C23.7852 20.375 24.625 21.2148 24.625 22.25C24.625 23.2852 23.7852 24.125 22.75 24.125ZM25.875 16H20.25V11.625H21.9727L25.875 15.5273V16Z" fill="#2B394D"/>
</g>
</g>
<defs>
<clipPath id="clip0_4446_2011">
<rect width="28" height="28" fill="white"/>
</clipPath>
<clipPath id="clip1_4446_2011">
<rect width="25" height="20" fill="white" transform="translate(4 6)"/>
</clipPath>
</defs>
</svg>
