<svg width="28" height="28" viewBox="0 0 28 28" fill="none" xmlns="http://www.w3.org/2000/svg">
<path d="M11.0766 12.668V21.3437C11.0761 21.4456 11.0546 21.5464 11.0136 21.6398C10.9726 21.7331 10.9128 21.8171 10.8381 21.8864C10.7633 21.9558 10.6751 22.0091 10.579 22.043C10.4828 22.0769 10.3807 22.0907 10.279 22.0836C10.1791 22.0887 10.0792 22.0733 9.98553 22.0383C9.89185 22.0033 9.80633 21.9495 9.73427 21.8801C9.6622 21.8108 9.60511 21.7274 9.56653 21.6351C9.52794 21.5429 9.50868 21.4437 9.50992 21.3437V13.9407L8.30551 14.6556C8.16542 14.7493 7.99589 14.7885 7.82889 14.7658C7.66189 14.7431 7.50894 14.6602 7.3989 14.5325C7.31934 14.4537 7.25941 14.3572 7.22395 14.251C7.18849 14.1447 7.17849 14.0316 7.19474 13.9208C7.211 13.81 7.25306 13.7045 7.31753 13.6129C7.38201 13.5213 7.4671 13.4462 7.56595 13.3935L9.84357 12.0297C10.01 11.9481 10.1954 11.913 10.3802 11.928C10.4755 11.9278 10.5698 11.9471 10.6573 11.9848C10.7448 12.0224 10.8236 12.0777 10.8889 12.147C10.9542 12.2164 11.0045 12.2984 11.0368 12.388C11.0691 12.4777 11.0827 12.573 11.0766 12.668ZM20.8115 18.5439C20.811 18.632 20.7928 18.719 20.758 18.7999C20.7231 18.8808 20.6724 18.9539 20.6088 19.0148C20.5452 19.0757 20.47 19.1232 20.3877 19.1544C20.3053 19.1857 20.2176 19.2001 20.1296 19.1968H19.4041V21.3437C19.4054 21.4412 19.3872 21.538 19.3504 21.6284C19.3137 21.7188 19.2592 21.8008 19.1903 21.8698C19.1213 21.9388 19.0392 21.9933 18.9488 22.03C18.8585 22.0667 18.7616 22.085 18.6641 22.0837C18.5681 22.0843 18.4729 22.0654 18.3845 22.0281C18.296 21.9908 18.216 21.9358 18.1495 21.8665C18.083 21.7973 18.0313 21.7152 17.9975 21.6253C17.9637 21.5354 17.9487 21.4396 17.9532 21.3437V19.1968H14.0072C13.869 19.1937 13.7346 19.1514 13.6195 19.0749C13.5045 18.9984 13.4135 18.8908 13.3572 18.7646C13.301 18.6384 13.2817 18.4988 13.3017 18.3621C13.3217 18.2254 13.3801 18.0972 13.4701 17.9923L18.0839 12.2185C18.1775 12.0961 18.3071 12.0061 18.4545 11.9612C18.602 11.9164 18.7597 11.919 18.9056 11.9686C19.0515 12.0183 19.1781 12.1125 19.2675 12.238C19.357 12.3635 19.4048 12.5139 19.4041 12.668V17.862H20.1296C20.2196 17.8602 20.3091 17.8766 20.3927 17.9102C20.4762 17.9438 20.5521 17.994 20.6158 18.0577C20.6795 18.1214 20.7296 18.1973 20.7633 18.2808C20.7969 18.3644 20.8133 18.4539 20.8115 18.5439ZM17.9532 14.3804L15.2283 17.862H17.9532V14.3804ZM26.25 6.125V23.625C26.2492 24.321 25.9724 24.9882 25.4803 25.4803C24.9882 25.9724 24.321 26.2492 23.625 26.25H4.375C3.67904 26.2492 3.0118 25.9724 2.51968 25.4803C2.02757 24.9882 1.75076 24.321 1.75 23.625V6.125C1.75076 5.42904 2.02757 4.7618 2.51968 4.26968C3.0118 3.77757 3.67904 3.50076 4.375 3.5H7V2.625C7 2.39294 7.09219 2.17038 7.25628 2.00628C7.42038 1.84219 7.64294 1.75 7.875 1.75C8.10706 1.75 8.32962 1.84219 8.49372 2.00628C8.65781 2.17038 8.75 2.39294 8.75 2.625V3.5H13.125V2.625C13.125 2.39294 13.2172 2.17038 13.3813 2.00628C13.5454 1.84219 13.7679 1.75 14 1.75C14.2321 1.75 14.4546 1.84219 14.6187 2.00628C14.7828 2.17038 14.875 2.39294 14.875 2.625V3.5H19.25V2.625C19.25 2.39294 19.3422 2.17038 19.5063 2.00628C19.6704 1.84219 19.8929 1.75 20.125 1.75C20.3571 1.75 20.5796 1.84219 20.7437 2.00628C20.9078 2.17038 21 2.39294 21 2.625V3.5H23.625C24.321 3.50076 24.9882 3.77757 25.4803 4.26968C25.9724 4.7618 26.2492 5.42904 26.25 6.125ZM3.5 6.125V7.875H24.5V6.125C24.4997 5.89303 24.4074 5.67064 24.2434 5.50661C24.0794 5.34258 23.857 5.2503 23.625 5.25H21V6.125C21 6.35706 20.9078 6.57962 20.7437 6.74372C20.5796 6.90781 20.3571 7 20.125 7C19.8929 7 19.6704 6.90781 19.5063 6.74372C19.3422 6.57962 19.25 6.35706 19.25 6.125V5.25H14.875V6.125C14.875 6.35706 14.7828 6.57962 14.6187 6.74372C14.4546 6.90781 14.2321 7 14 7C13.7679 7 13.5454 6.90781 13.3813 6.74372C13.2172 6.57962 13.125 6.35706 13.125 6.125V5.25H8.75V6.125C8.75 6.35706 8.65781 6.57962 8.49372 6.74372C8.32962 6.90781 8.10706 7 7.875 7C7.64294 7 7.42038 6.90781 7.25628 6.74372C7.09219 6.57962 7 6.35706 7 6.125V5.25H4.375C4.14303 5.2503 3.92064 5.34258 3.75661 5.50661C3.59258 5.67064 3.5003 5.89303 3.5 6.125ZM24.5 23.625V9.625H3.5V23.625C3.5003 23.857 3.59258 24.0794 3.75661 24.2434C3.92064 24.4074 4.14303 24.4997 4.375 24.5H23.625C23.857 24.4997 24.0794 24.4074 24.2434 24.2434C24.4074 24.0794 24.4997 23.857 24.5 23.625Z" fill="#2B394D"/>
</svg>
