<svg width="216" height="106" viewBox="0 0 216 106" fill="none" xmlns="http://www.w3.org/2000/svg">
<path d="M1.17188 14V5.43359H2.16797V14H1.17188ZM11.3496 7.46094C12.0566 7.46094 12.5898 7.64648 12.9492 8.01758C13.3086 8.38477 13.4883 8.97656 13.4883 9.79297V14H12.5273V9.83984C12.5273 9.32031 12.4141 8.93164 12.1875 8.67383C11.9648 8.41211 11.6328 8.28125 11.1914 8.28125C10.5703 8.28125 10.1191 8.46094 9.83789 8.82031C9.55664 9.17969 9.41602 9.70898 9.41602 10.4082V14H8.44922V9.83984C8.44922 9.49219 8.39844 9.20312 8.29688 8.97266C8.19922 8.74219 8.05078 8.57031 7.85156 8.45703C7.65625 8.33984 7.4082 8.28125 7.10742 8.28125C6.68164 8.28125 6.33984 8.36914 6.08203 8.54492C5.82422 8.7207 5.63672 8.98242 5.51953 9.33008C5.40625 9.67383 5.34961 10.0977 5.34961 10.6016V14H4.37695V7.57812H5.16211L5.30859 8.48633H5.36133C5.49023 8.26367 5.65234 8.07617 5.84766 7.92383C6.04297 7.77148 6.26172 7.65625 6.50391 7.57812C6.74609 7.5 7.00391 7.46094 7.27734 7.46094C7.76562 7.46094 8.17383 7.55273 8.50195 7.73633C8.83398 7.91602 9.07422 8.19141 9.22266 8.5625H9.27539C9.48633 8.19141 9.77539 7.91602 10.1426 7.73633C10.5098 7.55273 10.9121 7.46094 11.3496 7.46094ZM17.8887 7.47266C18.6543 7.47266 19.2227 7.64453 19.5938 7.98828C19.9648 8.33203 20.1504 8.88086 20.1504 9.63477V14H19.4414L19.2539 13.0508H19.207C19.0273 13.2852 18.8398 13.4824 18.6445 13.6426C18.4492 13.7988 18.2227 13.918 17.9648 14C17.7109 14.0781 17.3984 14.1172 17.0273 14.1172C16.6367 14.1172 16.2891 14.0488 15.9844 13.9121C15.6836 13.7754 15.4453 13.5684 15.2695 13.291C15.0977 13.0137 15.0117 12.6621 15.0117 12.2363C15.0117 11.5957 15.2656 11.1035 15.7734 10.7598C16.2812 10.416 17.0547 10.2285 18.0938 10.1973L19.2012 10.1504V9.75781C19.2012 9.20312 19.082 8.81445 18.8438 8.5918C18.6055 8.36914 18.2695 8.25781 17.8359 8.25781C17.5 8.25781 17.1797 8.30664 16.875 8.4043C16.5703 8.50195 16.2812 8.61719 16.0078 8.75L15.709 8.01172C15.998 7.86328 16.3301 7.73633 16.7051 7.63086C17.0801 7.52539 17.4746 7.47266 17.8887 7.47266ZM19.1895 10.8359L18.2109 10.877C17.4102 10.9082 16.8457 11.0391 16.5176 11.2695C16.1895 11.5 16.0254 11.8262 16.0254 12.248C16.0254 12.6152 16.1367 12.8867 16.3594 13.0625C16.582 13.2383 16.877 13.3262 17.2441 13.3262C17.8145 13.3262 18.2812 13.168 18.6445 12.8516C19.0078 12.5352 19.1895 12.0605 19.1895 11.4277V10.8359ZM23.9473 16.8828C23.1035 16.8828 22.4531 16.7246 21.9961 16.4082C21.5391 16.0957 21.3105 15.6562 21.3105 15.0898C21.3105 14.6875 21.4375 14.3438 21.6914 14.0586C21.9492 13.7734 22.3047 13.584 22.7578 13.4902C22.5898 13.4121 22.4453 13.2949 22.3242 13.1387C22.207 12.9824 22.1484 12.8027 22.1484 12.5996C22.1484 12.3652 22.2129 12.1602 22.3418 11.9844C22.4746 11.8047 22.6758 11.6328 22.9453 11.4688C22.6094 11.332 22.3359 11.1016 22.125 10.7773C21.918 10.4492 21.8145 10.0684 21.8145 9.63477C21.8145 9.17383 21.9102 8.78125 22.1016 8.45703C22.293 8.12891 22.5703 7.87891 22.9336 7.70703C23.2969 7.53516 23.7363 7.44922 24.252 7.44922C24.3652 7.44922 24.4785 7.45508 24.5918 7.4668C24.709 7.47461 24.8203 7.48828 24.9258 7.50781C25.0312 7.52344 25.123 7.54297 25.2012 7.56641H27.4043V8.19336L26.2207 8.33984C26.3379 8.49219 26.4355 8.67578 26.5137 8.89062C26.5918 9.10547 26.6309 9.34375 26.6309 9.60547C26.6309 10.2461 26.4141 10.7559 25.9805 11.1348C25.5469 11.5098 24.9512 11.6973 24.1934 11.6973C24.0137 11.6973 23.8301 11.6816 23.6426 11.6504C23.4512 11.7559 23.3047 11.873 23.2031 12.002C23.1055 12.1309 23.0566 12.2793 23.0566 12.4473C23.0566 12.5723 23.0938 12.6719 23.168 12.7461C23.2461 12.8203 23.3574 12.875 23.502 12.9102C23.6465 12.9414 23.8203 12.957 24.0234 12.957H25.1543C25.8535 12.957 26.3887 13.1035 26.7598 13.3965C27.1348 13.6895 27.3223 14.1172 27.3223 14.6797C27.3223 15.3906 27.0332 15.9355 26.4551 16.3145C25.877 16.6934 25.041 16.8828 23.9473 16.8828ZM23.9766 16.1211C24.5078 16.1211 24.9473 16.0664 25.2949 15.957C25.6465 15.8516 25.9082 15.6973 26.0801 15.4941C26.2559 15.2949 26.3438 15.0566 26.3438 14.7793C26.3438 14.5215 26.2852 14.3262 26.168 14.1934C26.0508 14.0645 25.8789 13.9785 25.6523 13.9355C25.4258 13.8887 25.1484 13.8652 24.8203 13.8652H23.707C23.418 13.8652 23.166 13.9102 22.9512 14C22.7363 14.0898 22.5703 14.2227 22.4531 14.3984C22.3398 14.5742 22.2832 14.793 22.2832 15.0547C22.2832 15.4023 22.4297 15.666 22.7227 15.8457C23.0156 16.0293 23.4336 16.1211 23.9766 16.1211ZM24.2285 10.9883C24.6934 10.9883 25.043 10.8711 25.2773 10.6367C25.5117 10.4023 25.6289 10.0605 25.6289 9.61133C25.6289 9.13086 25.5098 8.77148 25.2715 8.5332C25.0332 8.29102 24.6816 8.16992 24.2168 8.16992C23.7715 8.16992 23.4277 8.29492 23.1855 8.54492C22.9473 8.79102 22.8281 9.15234 22.8281 9.62891C22.8281 10.0664 22.9492 10.4023 23.1914 10.6367C23.4336 10.8711 23.7793 10.9883 24.2285 10.9883ZM29.6426 7.57812V14H28.6699V7.57812H29.6426ZM29.168 5.17578C29.3281 5.17578 29.4648 5.22852 29.5781 5.33398C29.6953 5.43555 29.7539 5.5957 29.7539 5.81445C29.7539 6.0293 29.6953 6.18945 29.5781 6.29492C29.4648 6.40039 29.3281 6.45312 29.168 6.45312C29 6.45312 28.8594 6.40039 28.7461 6.29492C28.6367 6.18945 28.582 6.0293 28.582 5.81445C28.582 5.5957 28.6367 5.43555 28.7461 5.33398C28.8594 5.22852 29 5.17578 29.168 5.17578ZM34.7461 7.46094C35.5078 7.46094 36.084 7.64844 36.4746 8.02344C36.8652 8.39453 37.0605 8.99219 37.0605 9.81641V14H36.0996V9.88086C36.0996 9.3457 35.9766 8.94531 35.7305 8.67969C35.4883 8.41406 35.1152 8.28125 34.6113 8.28125C33.9004 8.28125 33.4004 8.48242 33.1113 8.88477C32.8223 9.28711 32.6777 9.87109 32.6777 10.6367V14H31.7051V7.57812H32.4902L32.6367 8.50391H32.6895C32.8262 8.27734 33 8.08789 33.2109 7.93555C33.4219 7.7793 33.6582 7.66211 33.9199 7.58398C34.1816 7.50195 34.457 7.46094 34.7461 7.46094ZM40.8574 16.8828C40.0137 16.8828 39.3633 16.7246 38.9062 16.4082C38.4492 16.0957 38.2207 15.6562 38.2207 15.0898C38.2207 14.6875 38.3477 14.3438 38.6016 14.0586C38.8594 13.7734 39.2148 13.584 39.668 13.4902C39.5 13.4121 39.3555 13.2949 39.2344 13.1387C39.1172 12.9824 39.0586 12.8027 39.0586 12.5996C39.0586 12.3652 39.123 12.1602 39.252 11.9844C39.3848 11.8047 39.5859 11.6328 39.8555 11.4688C39.5195 11.332 39.2461 11.1016 39.0352 10.7773C38.8281 10.4492 38.7246 10.0684 38.7246 9.63477C38.7246 9.17383 38.8203 8.78125 39.0117 8.45703C39.2031 8.12891 39.4805 7.87891 39.8438 7.70703C40.207 7.53516 40.6465 7.44922 41.1621 7.44922C41.2754 7.44922 41.3887 7.45508 41.502 7.4668C41.6191 7.47461 41.7305 7.48828 41.8359 7.50781C41.9414 7.52344 42.0332 7.54297 42.1113 7.56641H44.3145V8.19336L43.1309 8.33984C43.248 8.49219 43.3457 8.67578 43.4238 8.89062C43.502 9.10547 43.541 9.34375 43.541 9.60547C43.541 10.2461 43.3242 10.7559 42.8906 11.1348C42.457 11.5098 41.8613 11.6973 41.1035 11.6973C40.9238 11.6973 40.7402 11.6816 40.5527 11.6504C40.3613 11.7559 40.2148 11.873 40.1133 12.002C40.0156 12.1309 39.9668 12.2793 39.9668 12.4473C39.9668 12.5723 40.0039 12.6719 40.0781 12.7461C40.1562 12.8203 40.2676 12.875 40.4121 12.9102C40.5566 12.9414 40.7305 12.957 40.9336 12.957H42.0645C42.7637 12.957 43.2988 13.1035 43.6699 13.3965C44.0449 13.6895 44.2324 14.1172 44.2324 14.6797C44.2324 15.3906 43.9434 15.9355 43.3652 16.3145C42.7871 16.6934 41.9512 16.8828 40.8574 16.8828ZM40.8867 16.1211C41.418 16.1211 41.8574 16.0664 42.2051 15.957C42.5566 15.8516 42.8184 15.6973 42.9902 15.4941C43.166 15.2949 43.2539 15.0566 43.2539 14.7793C43.2539 14.5215 43.1953 14.3262 43.0781 14.1934C42.9609 14.0645 42.7891 13.9785 42.5625 13.9355C42.3359 13.8887 42.0586 13.8652 41.7305 13.8652H40.6172C40.3281 13.8652 40.0762 13.9102 39.8613 14C39.6465 14.0898 39.4805 14.2227 39.3633 14.3984C39.25 14.5742 39.1934 14.793 39.1934 15.0547C39.1934 15.4023 39.3398 15.666 39.6328 15.8457C39.9258 16.0293 40.3438 16.1211 40.8867 16.1211ZM41.1387 10.9883C41.6035 10.9883 41.9531 10.8711 42.1875 10.6367C42.4219 10.4023 42.5391 10.0605 42.5391 9.61133C42.5391 9.13086 42.4199 8.77148 42.1816 8.5332C41.9434 8.29102 41.5918 8.16992 41.127 8.16992C40.6816 8.16992 40.3379 8.29492 40.0957 8.54492C39.8574 8.79102 39.7383 9.15234 39.7383 9.62891C39.7383 10.0664 39.8594 10.4023 40.1016 10.6367C40.3438 10.8711 40.6895 10.9883 41.1387 10.9883ZM56.2734 9.70508C56.2734 10.4082 56.1777 11.0449 55.9863 11.6152C55.7949 12.1855 55.5098 12.668 55.1309 13.0625C54.7559 13.457 54.2871 13.7441 53.7246 13.9238L55.7402 16.0391H54.3164L52.6582 14.1055C52.6074 14.1055 52.5547 14.1074 52.5 14.1113C52.4492 14.1152 52.3984 14.1172 52.3477 14.1172C51.6836 14.1172 51.1035 14.0117 50.6074 13.8008C50.1152 13.5898 49.7051 13.2891 49.377 12.8984C49.0527 12.5078 48.8086 12.041 48.6445 11.498C48.4844 10.9551 48.4043 10.3535 48.4043 9.69336C48.4043 8.81836 48.5488 8.05078 48.8379 7.39062C49.127 6.73047 49.5645 6.2168 50.1504 5.84961C50.7402 5.48242 51.4785 5.29883 52.3652 5.29883C53.2129 5.29883 53.9258 5.48047 54.5039 5.84375C55.0859 6.20703 55.5254 6.71875 55.8223 7.37891C56.123 8.03516 56.2734 8.81055 56.2734 9.70508ZM49.4531 9.70508C49.4531 10.4316 49.5566 11.0605 49.7637 11.5918C49.9707 12.123 50.2871 12.5332 50.7129 12.8223C51.1426 13.1113 51.6875 13.2559 52.3477 13.2559C53.0117 13.2559 53.5547 13.1113 53.9766 12.8223C54.4023 12.5332 54.7168 12.123 54.9199 11.5918C55.123 11.0605 55.2246 10.4316 55.2246 9.70508C55.2246 8.59961 54.9922 7.73633 54.5273 7.11523C54.0664 6.49023 53.3457 6.17773 52.3652 6.17773C51.7012 6.17773 51.1543 6.32031 50.7246 6.60547C50.2949 6.89062 49.9746 7.29688 49.7637 7.82422C49.5566 8.34766 49.4531 8.97461 49.4531 9.70508ZM63.3398 7.57812V14H62.543L62.4023 13.0977H62.3496C62.2168 13.3203 62.0449 13.5078 61.834 13.6602C61.623 13.8125 61.3848 13.9258 61.1191 14C60.8574 14.0781 60.5781 14.1172 60.2812 14.1172C59.7734 14.1172 59.3477 14.0352 59.0039 13.8711C58.6602 13.707 58.4004 13.4531 58.2246 13.1094C58.0527 12.7656 57.9668 12.3242 57.9668 11.7852V7.57812H58.9512V11.7148C58.9512 12.25 59.0723 12.6504 59.3145 12.916C59.5566 13.1777 59.9258 13.3086 60.4219 13.3086C60.8984 13.3086 61.2773 13.2188 61.5586 13.0391C61.8438 12.8594 62.0488 12.5957 62.1738 12.248C62.2988 11.8965 62.3613 11.4668 62.3613 10.959V7.57812H63.3398ZM67.7988 7.47266C68.5645 7.47266 69.1328 7.64453 69.5039 7.98828C69.875 8.33203 70.0605 8.88086 70.0605 9.63477V14H69.3516L69.1641 13.0508H69.1172C68.9375 13.2852 68.75 13.4824 68.5547 13.6426C68.3594 13.7988 68.1328 13.918 67.875 14C67.6211 14.0781 67.3086 14.1172 66.9375 14.1172C66.5469 14.1172 66.1992 14.0488 65.8945 13.9121C65.5938 13.7754 65.3555 13.5684 65.1797 13.291C65.0078 13.0137 64.9219 12.6621 64.9219 12.2363C64.9219 11.5957 65.1758 11.1035 65.6836 10.7598C66.1914 10.416 66.9648 10.2285 68.0039 10.1973L69.1113 10.1504V9.75781C69.1113 9.20312 68.9922 8.81445 68.7539 8.5918C68.5156 8.36914 68.1797 8.25781 67.7461 8.25781C67.4102 8.25781 67.0898 8.30664 66.7852 8.4043C66.4805 8.50195 66.1914 8.61719 65.918 8.75L65.6191 8.01172C65.9082 7.86328 66.2402 7.73633 66.6152 7.63086C66.9902 7.52539 67.3848 7.47266 67.7988 7.47266ZM69.0996 10.8359L68.1211 10.877C67.3203 10.9082 66.7559 11.0391 66.4277 11.2695C66.0996 11.5 65.9355 11.8262 65.9355 12.248C65.9355 12.6152 66.0469 12.8867 66.2695 13.0625C66.4922 13.2383 66.7871 13.3262 67.1543 13.3262C67.7246 13.3262 68.1914 13.168 68.5547 12.8516C68.918 12.5352 69.0996 12.0605 69.0996 11.4277V10.8359ZM73.043 14H72.0645V4.88281H73.043V14ZM76.0723 7.57812V14H75.0996V7.57812H76.0723ZM75.5977 5.17578C75.7578 5.17578 75.8945 5.22852 76.0078 5.33398C76.125 5.43555 76.1836 5.5957 76.1836 5.81445C76.1836 6.0293 76.125 6.18945 76.0078 6.29492C75.8945 6.40039 75.7578 6.45312 75.5977 6.45312C75.4297 6.45312 75.2891 6.40039 75.1758 6.29492C75.0664 6.18945 75.0117 6.0293 75.0117 5.81445C75.0117 5.5957 75.0664 5.43555 75.1758 5.33398C75.2891 5.22852 75.4297 5.17578 75.5977 5.17578ZM80.209 13.3203C80.3691 13.3203 80.5332 13.3066 80.7012 13.2793C80.8691 13.252 81.0059 13.2188 81.1113 13.1797V13.9355C80.998 13.9863 80.8398 14.0293 80.6367 14.0645C80.4375 14.0996 80.2422 14.1172 80.0508 14.1172C79.7109 14.1172 79.4023 14.0586 79.125 13.9414C78.8477 13.8203 78.625 13.6172 78.457 13.332C78.293 13.0469 78.2109 12.6523 78.2109 12.1484V8.33984H77.2969V7.86523L78.2168 7.48438L78.6035 6.08984H79.1895V7.57812H81.0703V8.33984H79.1895V12.1191C79.1895 12.5215 79.2812 12.8223 79.4648 13.0215C79.6523 13.2207 79.9004 13.3203 80.209 13.3203ZM81.3984 7.57812H82.4414L83.8594 11.3047C83.9414 11.5234 84.0176 11.7344 84.0879 11.9375C84.1582 12.1367 84.2207 12.3281 84.2754 12.5117C84.3301 12.6953 84.373 12.873 84.4043 13.0449H84.4453C84.5 12.8496 84.5781 12.5938 84.6797 12.2773C84.7812 11.957 84.8906 11.6309 85.0078 11.2988L86.3496 7.57812H87.3984L84.6035 14.9434C84.4551 15.3379 84.2812 15.6816 84.082 15.9746C83.8867 16.2676 83.6484 16.4922 83.3672 16.6484C83.0859 16.8086 82.7461 16.8887 82.3477 16.8887C82.1641 16.8887 82.002 16.877 81.8613 16.8535C81.7207 16.834 81.5996 16.8105 81.498 16.7832V16.0039C81.584 16.0234 81.6875 16.041 81.8086 16.0566C81.9336 16.0723 82.0625 16.0801 82.1953 16.0801C82.4375 16.0801 82.6465 16.0332 82.8223 15.9395C83.002 15.8496 83.1562 15.7168 83.2852 15.541C83.4141 15.3652 83.5254 15.1562 83.6191 14.9141L83.9707 14.0117L81.3984 7.57812Z" fill="#222222"/>
<path d="M0 26C0 23.7909 1.63909 22 3.66102 22H22.3729V30H3.66101C1.63909 30 0 28.2091 0 26Z" fill="url(#paint0_linear_4446_1926)"/>
<path d="M24.2034 22H46.5763V30H24.2034V22Z" fill="url(#paint1_linear_4446_1926)"/>
<path d="M48.4068 22H70.7797V30H48.4068V22Z" fill="url(#paint2_linear_4446_1926)"/>
<path d="M72.6102 22H94.9831V30H72.6102V22Z" fill="url(#paint3_linear_4446_1926)"/>
<path d="M96.8136 22H119.186V30H96.8136V22Z" fill="url(#paint4_linear_4446_1926)"/>
<path d="M121.017 22H143.39V30H121.017V22Z" fill="url(#paint5_linear_4446_1926)"/>
<path d="M145.22 22H167.593V30H145.22V22Z" fill="url(#paint6_linear_4446_1926)"/>
<path d="M169.424 22H191.797V30H169.424V22Z" fill="url(#paint7_linear_4446_1926)"/>
<path d="M193.627 22H212.339C214.361 22 216 23.7909 216 26C216 28.2091 214.361 30 212.339 30H193.627V22Z" fill="url(#paint8_linear_4446_1926)"/>
<path d="M6.00586 49.7207C6.00586 50.2285 5.87891 50.6621 5.625 51.0215C5.375 51.377 5.02344 51.6484 4.57031 51.8359C4.11719 52.0234 3.58398 52.1172 2.9707 52.1172C2.64648 52.1172 2.33984 52.1016 2.05078 52.0703C1.76172 52.0391 1.49609 51.9941 1.25391 51.9355C1.01172 51.877 0.798828 51.8047 0.615234 51.7188V50.7637C0.908203 50.8848 1.26562 50.998 1.6875 51.1035C2.10938 51.2051 2.55078 51.2559 3.01172 51.2559C3.44141 51.2559 3.80469 51.1992 4.10156 51.0859C4.39844 50.9688 4.62305 50.8027 4.77539 50.5879C4.93164 50.3691 5.00977 50.1074 5.00977 49.8027C5.00977 49.5098 4.94531 49.2656 4.81641 49.0703C4.6875 48.8711 4.47266 48.6914 4.17188 48.5312C3.875 48.3672 3.46875 48.1934 2.95312 48.0098C2.58984 47.8809 2.26953 47.7402 1.99219 47.5879C1.71484 47.4316 1.48242 47.2559 1.29492 47.0605C1.10742 46.8652 0.964844 46.6387 0.867188 46.3809C0.773438 46.123 0.726562 45.8281 0.726562 45.4961C0.726562 45.0391 0.841797 44.6484 1.07227 44.3242C1.30664 43.9961 1.62891 43.7461 2.03906 43.5742C2.45312 43.3984 2.92773 43.3105 3.46289 43.3105C3.91992 43.3105 4.3418 43.3535 4.72852 43.4395C5.11914 43.5254 5.47656 43.6406 5.80078 43.7852L5.49023 44.6406C5.18164 44.5117 4.85352 44.4043 4.50586 44.3184C4.16211 44.2324 3.80664 44.1895 3.43945 44.1895C3.07227 44.1895 2.76172 44.2441 2.50781 44.3535C2.25781 44.459 2.06641 44.6094 1.93359 44.8047C1.80078 45 1.73438 45.2324 1.73438 45.502C1.73438 45.8027 1.79688 46.0527 1.92188 46.252C2.05078 46.4512 2.25391 46.6289 2.53125 46.7852C2.8125 46.9375 3.18359 47.0977 3.64453 47.2656C4.14844 47.4492 4.57617 47.6445 4.92773 47.8516C5.2793 48.0547 5.54688 48.3047 5.73047 48.6016C5.91406 48.8945 6.00586 49.2676 6.00586 49.7207ZM10.6289 45.4609C11.4297 45.4609 12.0684 45.7363 12.5449 46.2871C13.0215 46.8379 13.2598 47.666 13.2598 48.7715C13.2598 49.502 13.1504 50.1152 12.9316 50.6113C12.7129 51.1074 12.4043 51.4824 12.0059 51.7363C11.6113 51.9902 11.1445 52.1172 10.6055 52.1172C10.2656 52.1172 9.9668 52.0723 9.70898 51.9824C9.45117 51.8926 9.23047 51.7715 9.04688 51.6191C8.86328 51.4668 8.71094 51.3008 8.58984 51.1211H8.51953C8.53125 51.2734 8.54492 51.457 8.56055 51.6719C8.58008 51.8867 8.58984 52.0742 8.58984 52.2344V54.8711H7.61133V45.5781H8.41406L8.54297 46.5273H8.58984C8.71484 46.332 8.86719 46.1543 9.04688 45.9941C9.22656 45.8301 9.44531 45.7012 9.70312 45.6074C9.96484 45.5098 10.2734 45.4609 10.6289 45.4609ZM10.459 46.2812C10.0137 46.2812 9.6543 46.3672 9.38086 46.5391C9.11133 46.7109 8.91406 46.9688 8.78906 47.3125C8.66406 47.6523 8.59766 48.0801 8.58984 48.5957V48.7832C8.58984 49.3262 8.64844 49.7852 8.76562 50.1602C8.88672 50.5352 9.08398 50.8203 9.35742 51.0156C9.63477 51.2109 10.0059 51.3086 10.4707 51.3086C10.8691 51.3086 11.2012 51.2012 11.4668 50.9863C11.7324 50.7715 11.9297 50.4727 12.0586 50.0898C12.1914 49.7031 12.2578 49.2598 12.2578 48.7598C12.2578 48.002 12.1094 47.4004 11.8125 46.9551C11.5195 46.5059 11.0684 46.2812 10.459 46.2812ZM17.4316 45.4609C17.9785 45.4609 18.4473 45.582 18.8379 45.8242C19.2285 46.0664 19.5273 46.4062 19.7344 46.8438C19.9414 47.2773 20.0449 47.7852 20.0449 48.3672V48.9707H15.6094C15.6211 49.7246 15.8086 50.2988 16.1719 50.6934C16.5352 51.0879 17.0469 51.2852 17.707 51.2852C18.1133 51.2852 18.4727 51.248 18.7852 51.1738C19.0977 51.0996 19.4219 50.9902 19.7578 50.8457V51.7012C19.4336 51.8457 19.1113 51.9512 18.791 52.0176C18.4746 52.084 18.0996 52.1172 17.666 52.1172C17.0488 52.1172 16.5098 51.9922 16.0488 51.7422C15.5918 51.4883 15.2363 51.1172 14.9824 50.6289C14.7285 50.1406 14.6016 49.543 14.6016 48.8359C14.6016 48.1445 14.7168 47.5469 14.9473 47.043C15.1816 46.5352 15.5098 46.1445 15.9316 45.8711C16.3574 45.5977 16.8574 45.4609 17.4316 45.4609ZM17.4199 46.2578C16.9004 46.2578 16.4863 46.4277 16.1777 46.7676C15.8691 47.1074 15.6855 47.582 15.627 48.1914H19.0254C19.0215 47.8086 18.9609 47.4727 18.8438 47.1836C18.7305 46.8906 18.5566 46.6641 18.3223 46.5039C18.0879 46.3398 17.7871 46.2578 17.4199 46.2578ZM24.2695 52.1172C23.6914 52.1172 23.1816 51.998 22.7402 51.7598C22.2988 51.5215 21.9551 51.1582 21.709 50.6699C21.4629 50.1816 21.3398 49.5664 21.3398 48.8242C21.3398 48.0469 21.4688 47.4121 21.7266 46.9199C21.9883 46.4238 22.3477 46.0566 22.8047 45.8184C23.2617 45.5801 23.7812 45.4609 24.3633 45.4609C24.6836 45.4609 24.9922 45.4941 25.2891 45.5605C25.5898 45.623 25.8359 45.7031 26.0273 45.8008L25.7344 46.6152C25.5391 46.5371 25.3125 46.4668 25.0547 46.4043C24.8008 46.3418 24.5625 46.3105 24.3398 46.3105C23.8945 46.3105 23.5234 46.4062 23.2266 46.5977C22.9336 46.7891 22.7129 47.0703 22.5645 47.4414C22.4199 47.8125 22.3477 48.2695 22.3477 48.8125C22.3477 49.332 22.418 49.7754 22.5586 50.1426C22.7031 50.5098 22.916 50.791 23.1973 50.9863C23.4824 51.1777 23.8379 51.2734 24.2637 51.2734C24.6035 51.2734 24.9102 51.2383 25.1836 51.168C25.457 51.0938 25.7051 51.0078 25.9277 50.9102V51.7773C25.7129 51.8867 25.4727 51.9707 25.207 52.0293C24.9453 52.0879 24.6328 52.1172 24.2695 52.1172ZM28.4238 45.5781V52H27.4512V45.5781H28.4238ZM27.9492 43.1758C28.1094 43.1758 28.2461 43.2285 28.3594 43.334C28.4766 43.4355 28.5352 43.5957 28.5352 43.8145C28.5352 44.0293 28.4766 44.1895 28.3594 44.2949C28.2461 44.4004 28.1094 44.4531 27.9492 44.4531C27.7812 44.4531 27.6406 44.4004 27.5273 44.2949C27.418 44.1895 27.3633 44.0293 27.3633 43.8145C27.3633 43.5957 27.418 43.4355 27.5273 43.334C27.6406 43.2285 27.7812 43.1758 27.9492 43.1758ZM32.8887 45.4727C33.6543 45.4727 34.2227 45.6445 34.5938 45.9883C34.9648 46.332 35.1504 46.8809 35.1504 47.6348V52H34.4414L34.2539 51.0508H34.207C34.0273 51.2852 33.8398 51.4824 33.6445 51.6426C33.4492 51.7988 33.2227 51.918 32.9648 52C32.7109 52.0781 32.3984 52.1172 32.0273 52.1172C31.6367 52.1172 31.2891 52.0488 30.9844 51.9121C30.6836 51.7754 30.4453 51.5684 30.2695 51.291C30.0977 51.0137 30.0117 50.6621 30.0117 50.2363C30.0117 49.5957 30.2656 49.1035 30.7734 48.7598C31.2812 48.416 32.0547 48.2285 33.0938 48.1973L34.2012 48.1504V47.7578C34.2012 47.2031 34.082 46.8145 33.8438 46.5918C33.6055 46.3691 33.2695 46.2578 32.8359 46.2578C32.5 46.2578 32.1797 46.3066 31.875 46.4043C31.5703 46.502 31.2812 46.6172 31.0078 46.75L30.709 46.0117C30.998 45.8633 31.3301 45.7363 31.7051 45.6309C32.0801 45.5254 32.4746 45.4727 32.8887 45.4727ZM34.1895 48.8359L33.2109 48.877C32.4102 48.9082 31.8457 49.0391 31.5176 49.2695C31.1895 49.5 31.0254 49.8262 31.0254 50.248C31.0254 50.6152 31.1367 50.8867 31.3594 51.0625C31.582 51.2383 31.877 51.3262 32.2441 51.3262C32.8145 51.3262 33.2812 51.168 33.6445 50.8516C34.0078 50.5352 34.1895 50.0605 34.1895 49.4277V48.8359ZM38.1328 52H37.1543V42.8828H38.1328V52ZM41.1621 45.5781V52H40.1895V45.5781H41.1621ZM40.6875 43.1758C40.8477 43.1758 40.9844 43.2285 41.0977 43.334C41.2148 43.4355 41.2734 43.5957 41.2734 43.8145C41.2734 44.0293 41.2148 44.1895 41.0977 44.2949C40.9844 44.4004 40.8477 44.4531 40.6875 44.4531C40.5195 44.4531 40.3789 44.4004 40.2656 44.2949C40.1562 44.1895 40.1016 44.0293 40.1016 43.8145C40.1016 43.5957 40.1562 43.4355 40.2656 43.334C40.3789 43.2285 40.5195 43.1758 40.6875 43.1758ZM47.3496 52H42.668V51.3555L46.1895 46.3398H42.8906V45.5781H47.2734V46.2988L43.7988 51.2441H47.3496V52ZM51.3223 45.4609C51.8691 45.4609 52.3379 45.582 52.7285 45.8242C53.1191 46.0664 53.418 46.4062 53.625 46.8438C53.832 47.2773 53.9355 47.7852 53.9355 48.3672V48.9707H49.5C49.5117 49.7246 49.6992 50.2988 50.0625 50.6934C50.4258 51.0879 50.9375 51.2852 51.5977 51.2852C52.0039 51.2852 52.3633 51.248 52.6758 51.1738C52.9883 51.0996 53.3125 50.9902 53.6484 50.8457V51.7012C53.3242 51.8457 53.002 51.9512 52.6816 52.0176C52.3652 52.084 51.9902 52.1172 51.5566 52.1172C50.9395 52.1172 50.4004 51.9922 49.9395 51.7422C49.4824 51.4883 49.127 51.1172 48.873 50.6289C48.6191 50.1406 48.4922 49.543 48.4922 48.8359C48.4922 48.1445 48.6074 47.5469 48.8379 47.043C49.0723 46.5352 49.4004 46.1445 49.8223 45.8711C50.248 45.5977 50.748 45.4609 51.3223 45.4609ZM51.3105 46.2578C50.791 46.2578 50.377 46.4277 50.0684 46.7676C49.7598 47.1074 49.5762 47.582 49.5176 48.1914H52.916C52.9121 47.8086 52.8516 47.4727 52.7344 47.1836C52.6211 46.8906 52.4473 46.6641 52.2129 46.5039C51.9785 46.3398 51.6777 46.2578 51.3105 46.2578ZM57.873 52.1172C57.0605 52.1172 56.416 51.8398 55.9395 51.2852C55.4668 50.7305 55.2305 49.9062 55.2305 48.8125C55.2305 47.707 55.4727 46.873 55.957 46.3105C56.4414 45.7441 57.0859 45.4609 57.8906 45.4609C58.2305 45.4609 58.5273 45.5059 58.7812 45.5957C59.0352 45.6855 59.2539 45.8066 59.4375 45.959C59.6211 46.1074 59.7754 46.2773 59.9004 46.4688H59.9707C59.9551 46.3477 59.9395 46.1816 59.9238 45.9707C59.9082 45.7598 59.9004 45.5879 59.9004 45.4551V42.8828H60.873V52H60.0879L59.9414 51.0859H59.9004C59.7793 51.2773 59.625 51.4512 59.4375 51.6074C59.2539 51.7637 59.0332 51.8887 58.7754 51.9824C58.5215 52.0723 58.2207 52.1172 57.873 52.1172ZM58.0254 51.3086C58.7129 51.3086 59.1992 51.1133 59.4844 50.7227C59.7695 50.332 59.9121 49.752 59.9121 48.9824V48.8066C59.9121 47.9902 59.7754 47.3633 59.502 46.9258C59.2324 46.4883 58.7402 46.2695 58.0254 46.2695C57.4277 46.2695 56.9805 46.5 56.6836 46.9609C56.3867 47.418 56.2383 48.043 56.2383 48.8359C56.2383 49.625 56.3848 50.2344 56.6777 50.6641C56.9746 51.0938 57.4238 51.3086 58.0254 51.3086ZM67.1953 52H66.1992V43.4336H70.9688V44.3125H67.1953V47.4531H70.7402V48.3262H67.1953V52ZM74.7246 45.4609C75.2715 45.4609 75.7402 45.582 76.1309 45.8242C76.5215 46.0664 76.8203 46.4062 77.0273 46.8438C77.2344 47.2773 77.3379 47.7852 77.3379 48.3672V48.9707H72.9023C72.9141 49.7246 73.1016 50.2988 73.4648 50.6934C73.8281 51.0879 74.3398 51.2852 75 51.2852C75.4062 51.2852 75.7656 51.248 76.0781 51.1738C76.3906 51.0996 76.7148 50.9902 77.0508 50.8457V51.7012C76.7266 51.8457 76.4043 51.9512 76.084 52.0176C75.7676 52.084 75.3926 52.1172 74.959 52.1172C74.3418 52.1172 73.8027 51.9922 73.3418 51.7422C72.8848 51.4883 72.5293 51.1172 72.2754 50.6289C72.0215 50.1406 71.8945 49.543 71.8945 48.8359C71.8945 48.1445 72.0098 47.5469 72.2402 47.043C72.4746 46.5352 72.8027 46.1445 73.2246 45.8711C73.6504 45.5977 74.1504 45.4609 74.7246 45.4609ZM74.7129 46.2578C74.1934 46.2578 73.7793 46.4277 73.4707 46.7676C73.1621 47.1074 72.9785 47.582 72.9199 48.1914H76.3184C76.3145 47.8086 76.2539 47.4727 76.1367 47.1836C76.0234 46.8906 75.8496 46.6641 75.6152 46.5039C75.3809 46.3398 75.0801 46.2578 74.7129 46.2578ZM81.3926 45.4727C82.1582 45.4727 82.7266 45.6445 83.0977 45.9883C83.4688 46.332 83.6543 46.8809 83.6543 47.6348V52H82.9453L82.7578 51.0508H82.7109C82.5312 51.2852 82.3438 51.4824 82.1484 51.6426C81.9531 51.7988 81.7266 51.918 81.4688 52C81.2148 52.0781 80.9023 52.1172 80.5312 52.1172C80.1406 52.1172 79.793 52.0488 79.4883 51.9121C79.1875 51.7754 78.9492 51.5684 78.7734 51.291C78.6016 51.0137 78.5156 50.6621 78.5156 50.2363C78.5156 49.5957 78.7695 49.1035 79.2773 48.7598C79.7852 48.416 80.5586 48.2285 81.5977 48.1973L82.7051 48.1504V47.7578C82.7051 47.2031 82.5859 46.8145 82.3477 46.5918C82.1094 46.3691 81.7734 46.2578 81.3398 46.2578C81.0039 46.2578 80.6836 46.3066 80.3789 46.4043C80.0742 46.502 79.7852 46.6172 79.5117 46.75L79.2129 46.0117C79.502 45.8633 79.834 45.7363 80.209 45.6309C80.584 45.5254 80.9785 45.4727 81.3926 45.4727ZM82.6934 48.8359L81.7148 48.877C80.9141 48.9082 80.3496 49.0391 80.0215 49.2695C79.6934 49.5 79.5293 49.8262 79.5293 50.248C79.5293 50.6152 79.6406 50.8867 79.8633 51.0625C80.0859 51.2383 80.3809 51.3262 80.748 51.3262C81.3184 51.3262 81.7852 51.168 82.1484 50.8516C82.5117 50.5352 82.6934 50.0605 82.6934 49.4277V48.8359ZM87.7324 51.3203C87.8926 51.3203 88.0566 51.3066 88.2246 51.2793C88.3926 51.252 88.5293 51.2188 88.6348 51.1797V51.9355C88.5215 51.9863 88.3633 52.0293 88.1602 52.0645C87.9609 52.0996 87.7656 52.1172 87.5742 52.1172C87.2344 52.1172 86.9258 52.0586 86.6484 51.9414C86.3711 51.8203 86.1484 51.6172 85.9805 51.332C85.8164 51.0469 85.7344 50.6523 85.7344 50.1484V46.3398H84.8203V45.8652L85.7402 45.4844L86.127 44.0898H86.7129V45.5781H88.5938V46.3398H86.7129V50.1191C86.7129 50.5215 86.8047 50.8223 86.9883 51.0215C87.1758 51.2207 87.4238 51.3203 87.7324 51.3203ZM95.2383 45.5781V52H94.4414L94.3008 51.0977H94.248C94.1152 51.3203 93.9434 51.5078 93.7324 51.6602C93.5215 51.8125 93.2832 51.9258 93.0176 52C92.7559 52.0781 92.4766 52.1172 92.1797 52.1172C91.6719 52.1172 91.2461 52.0352 90.9023 51.8711C90.5586 51.707 90.2988 51.4531 90.123 51.1094C89.9512 50.7656 89.8652 50.3242 89.8652 49.7852V45.5781H90.8496V49.7148C90.8496 50.25 90.9707 50.6504 91.2129 50.916C91.4551 51.1777 91.8242 51.3086 92.3203 51.3086C92.7969 51.3086 93.1758 51.2188 93.457 51.0391C93.7422 50.8594 93.9473 50.5957 94.0723 50.248C94.1973 49.8965 94.2598 49.4668 94.2598 48.959V45.5781H95.2383ZM100.213 45.4609C100.342 45.4609 100.477 45.4688 100.617 45.4844C100.758 45.4961 100.883 45.5137 100.992 45.5371L100.869 46.4395C100.764 46.4121 100.646 46.3906 100.518 46.375C100.389 46.3594 100.268 46.3516 100.154 46.3516C99.8965 46.3516 99.6523 46.4043 99.4219 46.5098C99.1953 46.6113 98.9961 46.7598 98.8242 46.9551C98.6523 47.1465 98.5176 47.3789 98.4199 47.6523C98.3223 47.9219 98.2734 48.2227 98.2734 48.5547V52H97.2949V45.5781H98.1035L98.209 46.7617H98.25C98.3828 46.5234 98.543 46.3066 98.7305 46.1113C98.918 45.9121 99.1348 45.7539 99.3809 45.6367C99.6309 45.5195 99.9082 45.4609 100.213 45.4609ZM104.678 45.4609C105.225 45.4609 105.693 45.582 106.084 45.8242C106.475 46.0664 106.773 46.4062 106.98 46.8438C107.188 47.2773 107.291 47.7852 107.291 48.3672V48.9707H102.855C102.867 49.7246 103.055 50.2988 103.418 50.6934C103.781 51.0879 104.293 51.2852 104.953 51.2852C105.359 51.2852 105.719 51.248 106.031 51.1738C106.344 51.0996 106.668 50.9902 107.004 50.8457V51.7012C106.68 51.8457 106.357 51.9512 106.037 52.0176C105.721 52.084 105.346 52.1172 104.912 52.1172C104.295 52.1172 103.756 51.9922 103.295 51.7422C102.838 51.4883 102.482 51.1172 102.229 50.6289C101.975 50.1406 101.848 49.543 101.848 48.8359C101.848 48.1445 101.963 47.5469 102.193 47.043C102.428 46.5352 102.756 46.1445 103.178 45.8711C103.604 45.5977 104.104 45.4609 104.678 45.4609ZM104.666 46.2578C104.146 46.2578 103.732 46.4277 103.424 46.7676C103.115 47.1074 102.932 47.582 102.873 48.1914H106.271C106.268 47.8086 106.207 47.4727 106.09 47.1836C105.977 46.8906 105.803 46.6641 105.568 46.5039C105.334 46.3398 105.033 46.2578 104.666 46.2578ZM113.098 50.2422C113.098 50.6523 112.994 50.998 112.787 51.2793C112.584 51.5566 112.291 51.7656 111.908 51.9062C111.529 52.0469 111.076 52.1172 110.549 52.1172C110.1 52.1172 109.711 52.082 109.383 52.0117C109.055 51.9414 108.768 51.8418 108.521 51.7129V50.8164C108.783 50.9453 109.096 51.0625 109.459 51.168C109.822 51.2734 110.193 51.3262 110.572 51.3262C111.127 51.3262 111.529 51.2363 111.779 51.0566C112.029 50.877 112.154 50.6328 112.154 50.3242C112.154 50.1484 112.104 49.9941 112.002 49.8613C111.904 49.7246 111.738 49.5938 111.504 49.4688C111.27 49.3398 110.945 49.1992 110.531 49.0469C110.121 48.8906 109.766 48.7363 109.465 48.584C109.168 48.4277 108.938 48.2383 108.773 48.0156C108.613 47.793 108.533 47.5039 108.533 47.1484C108.533 46.6055 108.752 46.1895 109.189 45.9004C109.631 45.6074 110.209 45.4609 110.924 45.4609C111.311 45.4609 111.672 45.5 112.008 45.5781C112.348 45.6523 112.664 45.7539 112.957 45.8828L112.629 46.6621C112.363 46.5488 112.08 46.4531 111.779 46.375C111.479 46.2969 111.172 46.2578 110.859 46.2578C110.41 46.2578 110.064 46.332 109.822 46.4805C109.584 46.6289 109.465 46.832 109.465 47.0898C109.465 47.2891 109.52 47.4531 109.629 47.582C109.742 47.7109 109.922 47.832 110.168 47.9453C110.414 48.0586 110.738 48.1914 111.141 48.3438C111.543 48.4922 111.891 48.6465 112.184 48.8066C112.477 48.9629 112.701 49.1543 112.857 49.3809C113.018 49.6035 113.098 49.8906 113.098 50.2422Z" fill="#222222"/>
<path d="M0 64C0 61.7909 1.63909 60 3.66102 60H22.3729V68H3.66101C1.63909 68 0 66.2091 0 64Z" fill="url(#paint9_linear_4446_1926)"/>
<path d="M24.2034 60H46.5763V68H24.2034V60Z" fill="url(#paint10_linear_4446_1926)"/>
<path d="M48.4068 60H70.7797V68H48.4068V60Z" fill="url(#paint11_linear_4446_1926)"/>
<path d="M72.6102 60H94.9831V68H72.6102V60Z" fill="url(#paint12_linear_4446_1926)"/>
<path d="M96.8136 60H119.186V68H96.8136V60Z" fill="url(#paint13_linear_4446_1926)"/>
<path d="M121.017 60H143.39V68H121.017V60Z" fill="url(#paint14_linear_4446_1926)"/>
<path d="M145.22 60H167.593V68H145.22V60Z" fill="url(#paint15_linear_4446_1926)"/>
<path d="M169.424 60H191.797V68H169.424V60Z" fill="url(#paint16_linear_4446_1926)"/>
<path d="M193.627 60H212.339C214.361 60 216 61.7909 216 64C216 66.2091 214.361 68 212.339 68H193.627V60Z" fill="url(#paint17_linear_4446_1926)"/>
<path d="M5.94141 90H1.17188V81.4336H5.94141V82.3125H2.16797V85.084H5.72461V85.9512H2.16797V89.1211H5.94141V90ZM10.0957 83.4727C10.8613 83.4727 11.4297 83.6445 11.8008 83.9883C12.1719 84.332 12.3574 84.8809 12.3574 85.6348V90H11.6484L11.4609 89.0508H11.4141C11.2344 89.2852 11.0469 89.4824 10.8516 89.6426C10.6562 89.7988 10.4297 89.918 10.1719 90C9.91797 90.0781 9.60547 90.1172 9.23438 90.1172C8.84375 90.1172 8.49609 90.0488 8.19141 89.9121C7.89062 89.7754 7.65234 89.5684 7.47656 89.291C7.30469 89.0137 7.21875 88.6621 7.21875 88.2363C7.21875 87.5957 7.47266 87.1035 7.98047 86.7598C8.48828 86.416 9.26172 86.2285 10.3008 86.1973L11.4082 86.1504V85.7578C11.4082 85.2031 11.2891 84.8145 11.0508 84.5918C10.8125 84.3691 10.4766 84.2578 10.043 84.2578C9.70703 84.2578 9.38672 84.3066 9.08203 84.4043C8.77734 84.502 8.48828 84.6172 8.21484 84.75L7.91602 84.0117C8.20508 83.8633 8.53711 83.7363 8.91211 83.6309C9.28711 83.5254 9.68164 83.4727 10.0957 83.4727ZM11.3965 86.8359L10.418 86.877C9.61719 86.9082 9.05273 87.0391 8.72461 87.2695C8.39648 87.5 8.23242 87.8262 8.23242 88.248C8.23242 88.6152 8.34375 88.8867 8.56641 89.0625C8.78906 89.2383 9.08398 89.3262 9.45117 89.3262C10.0215 89.3262 10.4883 89.168 10.8516 88.8516C11.2148 88.5352 11.3965 88.0605 11.3965 87.4277V86.8359ZM18.5156 88.2422C18.5156 88.6523 18.4121 88.998 18.2051 89.2793C18.002 89.5566 17.709 89.7656 17.3262 89.9062C16.9473 90.0469 16.4941 90.1172 15.9668 90.1172C15.5176 90.1172 15.1289 90.082 14.8008 90.0117C14.4727 89.9414 14.1855 89.8418 13.9395 89.7129V88.8164C14.2012 88.9453 14.5137 89.0625 14.877 89.168C15.2402 89.2734 15.6113 89.3262 15.9902 89.3262C16.5449 89.3262 16.9473 89.2363 17.1973 89.0566C17.4473 88.877 17.5723 88.6328 17.5723 88.3242C17.5723 88.1484 17.5215 87.9941 17.4199 87.8613C17.3223 87.7246 17.1562 87.5938 16.9219 87.4688C16.6875 87.3398 16.3633 87.1992 15.9492 87.0469C15.5391 86.8906 15.1836 86.7363 14.8828 86.584C14.5859 86.4277 14.3555 86.2383 14.1914 86.0156C14.0312 85.793 13.9512 85.5039 13.9512 85.1484C13.9512 84.6055 14.1699 84.1895 14.6074 83.9004C15.0488 83.6074 15.627 83.4609 16.3418 83.4609C16.7285 83.4609 17.0898 83.5 17.4258 83.5781C17.7656 83.6523 18.082 83.7539 18.375 83.8828L18.0469 84.6621C17.7812 84.5488 17.498 84.4531 17.1973 84.375C16.8965 84.2969 16.5898 84.2578 16.2773 84.2578C15.8281 84.2578 15.4824 84.332 15.2402 84.4805C15.002 84.6289 14.8828 84.832 14.8828 85.0898C14.8828 85.2891 14.9375 85.4531 15.0469 85.582C15.1602 85.7109 15.3398 85.832 15.5859 85.9453C15.832 86.0586 16.1562 86.1914 16.5586 86.3438C16.9609 86.4922 17.3086 86.6465 17.6016 86.8066C17.8945 86.9629 18.1191 87.1543 18.2754 87.3809C18.4355 87.6035 18.5156 87.8906 18.5156 88.2422ZM22.5527 83.4609C23.0996 83.4609 23.5684 83.582 23.959 83.8242C24.3496 84.0664 24.6484 84.4062 24.8555 84.8438C25.0625 85.2773 25.166 85.7852 25.166 86.3672V86.9707H20.7305C20.7422 87.7246 20.9297 88.2988 21.293 88.6934C21.6562 89.0879 22.168 89.2852 22.8281 89.2852C23.2344 89.2852 23.5938 89.248 23.9062 89.1738C24.2188 89.0996 24.543 88.9902 24.8789 88.8457V89.7012C24.5547 89.8457 24.2324 89.9512 23.9121 90.0176C23.5957 90.084 23.2207 90.1172 22.7871 90.1172C22.1699 90.1172 21.6309 89.9922 21.1699 89.7422C20.7129 89.4883 20.3574 89.1172 20.1035 88.6289C19.8496 88.1406 19.7227 87.543 19.7227 86.8359C19.7227 86.1445 19.8379 85.5469 20.0684 85.043C20.3027 84.5352 20.6309 84.1445 21.0527 83.8711C21.4785 83.5977 21.9785 83.4609 22.5527 83.4609ZM22.541 84.2578C22.0215 84.2578 21.6074 84.4277 21.2988 84.7676C20.9902 85.1074 20.8066 85.582 20.748 86.1914H24.1465C24.1426 85.8086 24.082 85.4727 23.9648 85.1836C23.8516 84.8906 23.6777 84.6641 23.4434 84.5039C23.209 84.3398 22.9082 84.2578 22.541 84.2578ZM35.4727 86.7773C35.4727 87.3047 35.4043 87.7754 35.2676 88.1895C35.1309 88.6035 34.9336 88.9531 34.6758 89.2383C34.418 89.5234 34.1055 89.7422 33.7383 89.8945C33.375 90.043 32.9629 90.1172 32.502 90.1172C32.0723 90.1172 31.6777 90.043 31.3184 89.8945C30.9629 89.7422 30.6543 89.5234 30.3926 89.2383C30.1348 88.9531 29.9336 88.6035 29.7891 88.1895C29.6484 87.7754 29.5781 87.3047 29.5781 86.7773C29.5781 86.0742 29.6973 85.4766 29.9355 84.9844C30.1738 84.4883 30.5137 84.1113 30.9551 83.8535C31.4004 83.5918 31.9297 83.4609 32.543 83.4609C33.1289 83.4609 33.6406 83.5918 34.0781 83.8535C34.5195 84.1152 34.8613 84.4941 35.1035 84.9902C35.3496 85.4824 35.4727 86.0781 35.4727 86.7773ZM30.5859 86.7773C30.5859 87.293 30.6543 87.7402 30.791 88.1191C30.9277 88.498 31.1387 88.791 31.4238 88.998C31.709 89.2051 32.0762 89.3086 32.5254 89.3086C32.9707 89.3086 33.3359 89.2051 33.6211 88.998C33.9102 88.791 34.123 88.498 34.2598 88.1191C34.3965 87.7402 34.4648 87.293 34.4648 86.7773C34.4648 86.2656 34.3965 85.8242 34.2598 85.4531C34.123 85.0781 33.9121 84.7891 33.627 84.5859C33.3418 84.3828 32.9727 84.2812 32.5195 84.2812C31.8516 84.2812 31.3613 84.502 31.0488 84.9434C30.7402 85.3848 30.5859 85.9961 30.5859 86.7773ZM40.0137 84.3398H38.4141V90H37.4414V84.3398H36.3047V83.8711L37.4414 83.5488V83.1211C37.4414 82.582 37.5215 82.1445 37.6816 81.8086C37.8418 81.4688 38.0742 81.2188 38.3789 81.0586C38.6836 80.8984 39.0547 80.8184 39.4922 80.8184C39.7383 80.8184 39.9629 80.8398 40.166 80.8828C40.373 80.9258 40.5547 80.9746 40.7109 81.0293L40.459 81.7969C40.3262 81.7539 40.1758 81.7148 40.0078 81.6797C39.8438 81.6406 39.6758 81.6211 39.5039 81.6211C39.1328 81.6211 38.8574 81.7422 38.6777 81.9844C38.502 82.2227 38.4141 82.5977 38.4141 83.1094V83.5781H40.0137V84.3398ZM50.9414 81.4336V86.9766C50.9414 87.582 50.8184 88.1211 50.5723 88.5938C50.3301 89.0664 49.9629 89.4395 49.4707 89.7129C48.9785 89.9824 48.3613 90.1172 47.6191 90.1172C46.5605 90.1172 45.7539 89.8301 45.1992 89.2559C44.6484 88.6816 44.373 87.9141 44.373 86.9531V81.4336H45.375V86.9824C45.375 87.709 45.5664 88.2695 45.9492 88.6641C46.3359 89.0586 46.9121 89.2559 47.6777 89.2559C48.2012 89.2559 48.6289 89.1621 48.9609 88.9746C49.2969 88.7832 49.5449 88.5176 49.7051 88.1777C49.8691 87.834 49.9512 87.4375 49.9512 86.9883V81.4336H50.9414ZM57.2227 88.2422C57.2227 88.6523 57.1191 88.998 56.9121 89.2793C56.709 89.5566 56.416 89.7656 56.0332 89.9062C55.6543 90.0469 55.2012 90.1172 54.6738 90.1172C54.2246 90.1172 53.8359 90.082 53.5078 90.0117C53.1797 89.9414 52.8926 89.8418 52.6465 89.7129V88.8164C52.9082 88.9453 53.2207 89.0625 53.584 89.168C53.9473 89.2734 54.3184 89.3262 54.6973 89.3262C55.252 89.3262 55.6543 89.2363 55.9043 89.0566C56.1543 88.877 56.2793 88.6328 56.2793 88.3242C56.2793 88.1484 56.2285 87.9941 56.127 87.8613C56.0293 87.7246 55.8633 87.5938 55.6289 87.4688C55.3945 87.3398 55.0703 87.1992 54.6562 87.0469C54.2461 86.8906 53.8906 86.7363 53.5898 86.584C53.293 86.4277 53.0625 86.2383 52.8984 86.0156C52.7383 85.793 52.6582 85.5039 52.6582 85.1484C52.6582 84.6055 52.877 84.1895 53.3145 83.9004C53.7559 83.6074 54.334 83.4609 55.0488 83.4609C55.4355 83.4609 55.7969 83.5 56.1328 83.5781C56.4727 83.6523 56.7891 83.7539 57.082 83.8828L56.7539 84.6621C56.4883 84.5488 56.2051 84.4531 55.9043 84.375C55.6035 84.2969 55.2969 84.2578 54.9844 84.2578C54.5352 84.2578 54.1895 84.332 53.9473 84.4805C53.709 84.6289 53.5898 84.832 53.5898 85.0898C53.5898 85.2891 53.6445 85.4531 53.7539 85.582C53.8672 85.7109 54.0469 85.832 54.293 85.9453C54.5391 86.0586 54.8633 86.1914 55.2656 86.3438C55.668 86.4922 56.0156 86.6465 56.3086 86.8066C56.6016 86.9629 56.8262 87.1543 56.9824 87.3809C57.1426 87.6035 57.2227 87.8906 57.2227 88.2422ZM61.2598 83.4609C61.8066 83.4609 62.2754 83.582 62.666 83.8242C63.0566 84.0664 63.3555 84.4062 63.5625 84.8438C63.7695 85.2773 63.873 85.7852 63.873 86.3672V86.9707H59.4375C59.4492 87.7246 59.6367 88.2988 60 88.6934C60.3633 89.0879 60.875 89.2852 61.5352 89.2852C61.9414 89.2852 62.3008 89.248 62.6133 89.1738C62.9258 89.0996 63.25 88.9902 63.5859 88.8457V89.7012C63.2617 89.8457 62.9395 89.9512 62.6191 90.0176C62.3027 90.084 61.9277 90.1172 61.4941 90.1172C60.877 90.1172 60.3379 89.9922 59.877 89.7422C59.4199 89.4883 59.0645 89.1172 58.8105 88.6289C58.5566 88.1406 58.4297 87.543 58.4297 86.8359C58.4297 86.1445 58.5449 85.5469 58.7754 85.043C59.0098 84.5352 59.3379 84.1445 59.7598 83.8711C60.1855 83.5977 60.6855 83.4609 61.2598 83.4609ZM61.248 84.2578C60.7285 84.2578 60.3145 84.4277 60.0059 84.7676C59.6973 85.1074 59.5137 85.582 59.4551 86.1914H62.8535C62.8496 85.8086 62.7891 85.4727 62.6719 85.1836C62.5586 84.8906 62.3848 84.6641 62.1504 84.5039C61.916 84.3398 61.6152 84.2578 61.248 84.2578Z" fill="#222222"/>
<path d="M0 102C0 99.7909 1.63909 98 3.66102 98H22.3729V106H3.66101C1.63909 106 0 104.209 0 102Z" fill="url(#paint18_linear_4446_1926)"/>
<path d="M24.2034 98H46.5763V106H24.2034V98Z" fill="url(#paint19_linear_4446_1926)"/>
<path d="M48.4068 98H70.7797V106H48.4068V98Z" fill="url(#paint20_linear_4446_1926)"/>
<path d="M72.6102 98H94.9831V106H72.6102V98Z" fill="url(#paint21_linear_4446_1926)"/>
<path d="M96.8136 98H119.186V106H96.8136V98Z" fill="url(#paint22_linear_4446_1926)"/>
<path d="M121.017 98H143.39V106H121.017V98Z" fill="url(#paint23_linear_4446_1926)"/>
<path d="M145.22 98H167.593V106H145.22V98Z" fill="url(#paint24_linear_4446_1926)"/>
<path d="M169.424 98H191.797V106H169.424V98Z" fill="url(#paint25_linear_4446_1926)"/>
<path d="M193.627 98H212.339C214.361 98 216 99.7909 216 102C216 104.209 214.361 106 212.339 106H193.627V98Z" fill="url(#paint26_linear_4446_1926)"/>
<defs>
<linearGradient id="paint0_linear_4446_1926" x1="0" y1="26" x2="216" y2="26" gradientUnits="userSpaceOnUse">
<stop stop-color="#7FD3E2"/>
<stop offset="1" stop-color="#357AF6"/>
</linearGradient>
<linearGradient id="paint1_linear_4446_1926" x1="0" y1="26" x2="216" y2="26" gradientUnits="userSpaceOnUse">
<stop stop-color="#7FD3E2"/>
<stop offset="1" stop-color="#357AF6"/>
</linearGradient>
<linearGradient id="paint2_linear_4446_1926" x1="0" y1="26" x2="216" y2="26" gradientUnits="userSpaceOnUse">
<stop stop-color="#7FD3E2"/>
<stop offset="1" stop-color="#357AF6"/>
</linearGradient>
<linearGradient id="paint3_linear_4446_1926" x1="0" y1="26" x2="216" y2="26" gradientUnits="userSpaceOnUse">
<stop stop-color="#7FD3E2"/>
<stop offset="1" stop-color="#357AF6"/>
</linearGradient>
<linearGradient id="paint4_linear_4446_1926" x1="0" y1="26" x2="216" y2="26" gradientUnits="userSpaceOnUse">
<stop stop-color="#7FD3E2"/>
<stop offset="1" stop-color="#357AF6"/>
</linearGradient>
<linearGradient id="paint5_linear_4446_1926" x1="0" y1="26" x2="216" y2="26" gradientUnits="userSpaceOnUse">
<stop stop-color="#7FD3E2"/>
<stop offset="1" stop-color="#357AF6"/>
</linearGradient>
<linearGradient id="paint6_linear_4446_1926" x1="0" y1="26" x2="216" y2="26" gradientUnits="userSpaceOnUse">
<stop stop-color="#7FD3E2"/>
<stop offset="1" stop-color="#357AF6"/>
</linearGradient>
<linearGradient id="paint7_linear_4446_1926" x1="0" y1="26" x2="216" y2="26" gradientUnits="userSpaceOnUse">
<stop stop-color="#7FD3E2"/>
<stop offset="1" stop-color="#357AF6"/>
</linearGradient>
<linearGradient id="paint8_linear_4446_1926" x1="0" y1="26" x2="216" y2="26" gradientUnits="userSpaceOnUse">
<stop stop-color="#7FD3E2"/>
<stop offset="1" stop-color="#357AF6"/>
</linearGradient>
<linearGradient id="paint9_linear_4446_1926" x1="0" y1="64" x2="216" y2="64" gradientUnits="userSpaceOnUse">
<stop stop-color="#7FD3E2"/>
<stop offset="1" stop-color="#357AF6"/>
</linearGradient>
<linearGradient id="paint10_linear_4446_1926" x1="0" y1="64" x2="216" y2="64" gradientUnits="userSpaceOnUse">
<stop stop-color="#7FD3E2"/>
<stop offset="1" stop-color="#357AF6"/>
</linearGradient>
<linearGradient id="paint11_linear_4446_1926" x1="0" y1="64" x2="216" y2="64" gradientUnits="userSpaceOnUse">
<stop stop-color="#7FD3E2"/>
<stop offset="1" stop-color="#357AF6"/>
</linearGradient>
<linearGradient id="paint12_linear_4446_1926" x1="0" y1="64" x2="216" y2="64" gradientUnits="userSpaceOnUse">
<stop stop-color="#7FD3E2"/>
<stop offset="1" stop-color="#357AF6"/>
</linearGradient>
<linearGradient id="paint13_linear_4446_1926" x1="0" y1="64" x2="216" y2="64" gradientUnits="userSpaceOnUse">
<stop stop-color="#7FD3E2"/>
<stop offset="1" stop-color="#357AF6"/>
</linearGradient>
<linearGradient id="paint14_linear_4446_1926" x1="0" y1="64" x2="216" y2="64" gradientUnits="userSpaceOnUse">
<stop stop-color="#7FD3E2"/>
<stop offset="1" stop-color="#357AF6"/>
</linearGradient>
<linearGradient id="paint15_linear_4446_1926" x1="0" y1="64" x2="216" y2="64" gradientUnits="userSpaceOnUse">
<stop stop-color="#7FD3E2"/>
<stop offset="1" stop-color="#357AF6"/>
</linearGradient>
<linearGradient id="paint16_linear_4446_1926" x1="0" y1="64" x2="216" y2="64" gradientUnits="userSpaceOnUse">
<stop stop-color="#7FD3E2"/>
<stop offset="1" stop-color="#357AF6"/>
</linearGradient>
<linearGradient id="paint17_linear_4446_1926" x1="0" y1="64" x2="216" y2="64" gradientUnits="userSpaceOnUse">
<stop stop-color="#7FD3E2"/>
<stop offset="1" stop-color="#357AF6"/>
</linearGradient>
<linearGradient id="paint18_linear_4446_1926" x1="0" y1="102" x2="216" y2="102" gradientUnits="userSpaceOnUse">
<stop stop-color="#7FD3E2"/>
<stop offset="1" stop-color="#357AF6"/>
</linearGradient>
<linearGradient id="paint19_linear_4446_1926" x1="0" y1="102" x2="216" y2="102" gradientUnits="userSpaceOnUse">
<stop stop-color="#7FD3E2"/>
<stop offset="1" stop-color="#357AF6"/>
</linearGradient>
<linearGradient id="paint20_linear_4446_1926" x1="0" y1="102" x2="216" y2="102" gradientUnits="userSpaceOnUse">
<stop stop-color="#7FD3E2"/>
<stop offset="1" stop-color="#357AF6"/>
</linearGradient>
<linearGradient id="paint21_linear_4446_1926" x1="0" y1="102" x2="216" y2="102" gradientUnits="userSpaceOnUse">
<stop stop-color="#7FD3E2"/>
<stop offset="1" stop-color="#357AF6"/>
</linearGradient>
<linearGradient id="paint22_linear_4446_1926" x1="0" y1="102" x2="216" y2="102" gradientUnits="userSpaceOnUse">
<stop stop-color="#7FD3E2"/>
<stop offset="1" stop-color="#357AF6"/>
</linearGradient>
<linearGradient id="paint23_linear_4446_1926" x1="0" y1="102" x2="216" y2="102" gradientUnits="userSpaceOnUse">
<stop stop-color="#7FD3E2"/>
<stop offset="1" stop-color="#357AF6"/>
</linearGradient>
<linearGradient id="paint24_linear_4446_1926" x1="0" y1="102" x2="216" y2="102" gradientUnits="userSpaceOnUse">
<stop stop-color="#7FD3E2"/>
<stop offset="1" stop-color="#357AF6"/>
</linearGradient>
<linearGradient id="paint25_linear_4446_1926" x1="0" y1="102" x2="216" y2="102" gradientUnits="userSpaceOnUse">
<stop stop-color="#7FD3E2"/>
<stop offset="1" stop-color="#357AF6"/>
</linearGradient>
<linearGradient id="paint26_linear_4446_1926" x1="0" y1="102" x2="216" y2="102" gradientUnits="userSpaceOnUse">
<stop stop-color="#7FD3E2"/>
<stop offset="1" stop-color="#357AF6"/>
</linearGradient>
</defs>
</svg>
