<svg width="24" height="24" viewBox="0 0 24 24" fill="none" xmlns="http://www.w3.org/2000/svg">
<g clip-path="url(#clip0_4382_4547)">
<path d="M13 0H5C2.243 0 0 2.243 0 5V19C0 21.757 2.243 24 5 24H12.726C11.059 22.533 10 20.39 10 18C10 15.61 11.059 13.467 12.726 12H5C4.448 12 4 11.552 4 11C4 10.448 4.448 10 5 10H13C13.552 10 14 10.448 14 11C14 11.033 13.984 11.061 13.981 11.094C15.164 10.403 16.534 10 18 10V5C18 2.243 15.757 0 13 0ZM5 15H7C7.552 15 8 15.448 8 16C8 16.552 7.552 17 7 17H5C4.448 17 4 16.552 4 16C4 15.448 4.448 15 5 15ZM13 7H5C4.448 7 4 6.552 4 6C4 5.448 4.448 5 5 5H13C13.552 5 14 5.448 14 6C14 6.552 13.552 7 13 7ZM18 12C14.69 12 12 14.69 12 18C12 21.31 14.69 24 18 24C21.31 24 24 21.31 24 18C24 14.69 21.31 12 18 12ZM19 21C19 21.55 18.55 22 18 22C17.45 22 17 21.55 17 21V19C17 18.45 17.45 18 18 18C18.55 18 19 18.45 19 19V21ZM18 17C17.17 17 16.5 16.33 16.5 15.5C16.5 14.67 17.17 14 18 14C18.83 14 19.5 14.67 19.5 15.5C19.5 16.33 18.83 17 18 17Z" fill="#9CC0F2"/>
</g>
<defs>
<clipPath id="clip0_4382_4547">
<rect width="24" height="24" fill="white"/>
</clipPath>
</defs>
</svg>
