<svg width="24" height="24" viewBox="0 0 24 24" fill="none" xmlns="http://www.w3.org/2000/svg">
<g clip-path="url(#clip0_4435_3360)">
<path d="M15.0024 6.99988H10.1724V5.41388C10.1723 5.01838 10.0549 4.63178 9.83516 4.30296C9.6154 3.97414 9.30307 3.71786 8.93767 3.56652C8.57227 3.41518 8.1702 3.37558 7.7823 3.45271C7.39439 3.52985 7.03806 3.72026 6.75836 3.99988L0.878359 9.87888C0.315946 10.4415 0 11.2044 0 11.9999C0 12.7954 0.315946 13.5583 0.878359 14.1209L6.75836 19.9999C7.03806 20.2795 7.39439 20.4699 7.7823 20.547C8.1702 20.6242 8.57227 20.5846 8.93767 20.4332C9.30307 20.2819 9.6154 20.0256 9.83516 19.6968C10.0549 19.368 10.1723 18.9814 10.1724 18.5859V16.9999H16.0024C17.5932 17.0015 19.1184 17.6341 20.2432 18.759C21.3681 19.8839 22.0008 21.4091 22.0024 22.9999C22.0024 23.2651 22.1077 23.5195 22.2953 23.707C22.4828 23.8945 22.7371 23.9999 23.0024 23.9999C23.2676 23.9999 23.5219 23.8945 23.7095 23.707C23.897 23.5195 24.0024 23.2651 24.0024 22.9999V15.9999C23.9997 13.6137 23.0507 11.3261 21.3634 9.63884C19.6761 7.95159 17.3885 7.00253 15.0024 6.99988Z" fill="#9CC0F2"/>
</g>
<defs>
<clipPath id="clip0_4435_3360">
<rect width="24" height="24" fill="white"/>
</clipPath>
</defs>
</svg>
