<svg width="24" height="24" viewBox="0 0 24 24" fill="none" xmlns="http://www.w3.org/2000/svg">
<g clip-path="url(#clip0_4382_4454)">
<path d="M20 3H4C1.794 3 0 4.794 0 7V15C0 17.206 1.794 19 4 19H6.923L10.672 22.157C11.054 22.496 11.533 22.664 12.009 22.664C12.477 22.664 12.94 22.501 13.301 22.18L17.149 19H20.001C22.207 19 24.001 17.206 24.001 15V7C24.001 4.794 22.206 3 20 3ZM7.822 10.876L6.639 11.84L7.128 13.33C7.195 13.532 7.128 13.754 6.959 13.883C6.79 14.012 6.559 14.021 6.381 13.906L5.004 13.009L3.65 13.915C3.566 13.971 3.469 13.999 3.372 13.999C3.266 13.999 3.161 13.966 3.072 13.899C2.902 13.772 2.831 13.551 2.895 13.349L3.365 11.841L2.176 10.874C2.016 10.738 1.958 10.517 2.03 10.321C2.102 10.124 2.29 9.993 2.499 9.993H3.999L4.53 8.503C4.603 8.307 4.79 8.178 4.999 8.178C5.208 8.178 5.395 8.308 5.468 8.503L5.999 9.993H7.499C7.709 9.993 7.897 10.124 7.969 10.322C8.041 10.52 7.983 10.741 7.822 10.876ZM14.822 10.876L13.639 11.84L14.128 13.33C14.195 13.532 14.128 13.754 13.959 13.883C13.79 14.012 13.559 14.021 13.381 13.906L12.004 13.009L10.65 13.915C10.566 13.971 10.469 13.999 10.372 13.999C10.266 13.999 10.161 13.966 10.072 13.899C9.902 13.772 9.831 13.551 9.895 13.349L10.365 11.841L9.176 10.874C9.016 10.738 8.958 10.517 9.03 10.321C9.102 10.124 9.29 9.993 9.499 9.993H10.999L11.53 8.503C11.603 8.307 11.79 8.178 11.999 8.178C12.208 8.178 12.395 8.308 12.468 8.503L12.999 9.993H14.499C14.709 9.993 14.897 10.124 14.969 10.322C15.041 10.52 14.983 10.741 14.822 10.876ZM21.822 10.876L20.639 11.84L21.128 13.33C21.195 13.532 21.128 13.754 20.959 13.883C20.79 14.012 20.559 14.021 20.381 13.906L19.004 13.009L17.65 13.915C17.566 13.971 17.469 13.999 17.372 13.999C17.266 13.999 17.161 13.966 17.072 13.899C16.902 13.772 16.831 13.551 16.895 13.349L17.365 11.841L16.176 10.874C16.016 10.738 15.958 10.517 16.03 10.321C16.102 10.124 16.29 9.993 16.499 9.993H17.999L18.53 8.503C18.603 8.307 18.79 8.178 18.999 8.178C19.208 8.178 19.395 8.308 19.468 8.503L19.999 9.993H21.499C21.709 9.993 21.897 10.124 21.969 10.322C22.041 10.52 21.982 10.741 21.821 10.876H21.822Z" fill="#9CC0F2"/>
</g>
<defs>
<clipPath id="clip0_4382_4454">
<rect width="24" height="24" fill="white"/>
</clipPath>
</defs>
</svg>
