<svg width="24" height="24" viewBox="0 0 24 24" fill="none" xmlns="http://www.w3.org/2000/svg">
<path d="M15.2522 10.689C14.2652 9.50896 13.7722 8.91896 13.2042 9.00896C12.6372 9.09996 12.3722 9.81196 11.8422 11.236L11.7042 11.604C11.5542 12.009 11.4782 12.211 11.3312 12.36C11.1852 12.509 10.9832 12.588 10.5812 12.746L10.2142 12.889C8.79723 13.444 8.08823 13.722 8.00723 14.289C7.92623 14.856 8.52723 15.338 9.72823 16.3L10.0382 16.55C10.3802 16.823 10.5512 16.96 10.6492 17.147C10.7492 17.334 10.7642 17.551 10.7952 17.984L10.8242 18.378C10.9342 19.901 10.9902 20.663 11.5072 20.923C12.0242 21.183 12.6612 20.768 13.9342 19.94L14.2632 19.725C14.6252 19.49 14.8062 19.372 15.0132 19.338C15.2212 19.305 15.4332 19.36 15.8542 19.47L16.2392 19.57C17.7242 19.956 18.4672 20.15 18.8682 19.743C19.2692 19.336 19.0612 18.599 18.6472 17.123L18.5392 16.743C18.4222 16.323 18.3632 16.113 18.3922 15.906C18.4222 15.698 18.5372 15.516 18.7662 15.15L18.9762 14.818C19.7832 13.533 20.1862 12.891 19.9162 12.38C19.6472 11.869 18.8832 11.827 17.3542 11.745L16.9582 11.723C16.5242 11.7 16.3062 11.688 16.1172 11.593C15.9272 11.498 15.7872 11.33 15.5072 10.994L15.2522 10.689Z" fill="#FAAD13"/>
<path d="M14.8783 5.167L15.0613 5.689C15.2623 6.262 15.3633 6.549 15.5583 6.759C15.7543 6.97099 16.0223 7.083 16.5593 7.306L17.0483 7.51C18.9383 8.296 19.8833 8.69 19.9903 9.493C20.0353 9.827 19.9233 10.141 19.6603 10.491C19.5763 10.4682 19.4916 10.4482 19.4063 10.431C18.8803 10.324 18.2113 10.288 17.5293 10.251L17.0393 10.225L16.8093 10.212L16.6583 10.032L16.3423 9.65499C15.9023 9.127 15.4723 8.61199 15.0703 8.25399C14.6433 7.87199 13.9293 7.374 12.9673 7.528C11.9953 7.684 11.4773 8.391 11.1973 8.895C10.9383 9.363 10.7053 9.989 10.4693 10.622L10.2993 11.08L10.2273 11.273C10.174 11.293 10.1096 11.3183 10.0343 11.349L9.57831 11.527C8.94831 11.774 8.32531 12.017 7.86131 12.284C7.36331 12.571 6.66131 13.101 6.52231 14.077C6.38531 15.044 6.90031 15.75 7.28931 16.169C7.57931 16.48 7.97031 16.809 8.38731 17.147C6.81831 17.572 5.98431 17.731 5.51031 17.219C4.97631 16.643 5.25231 15.599 5.80531 13.509L5.94731 12.969C6.10431 12.374 6.18331 12.078 6.14431 11.783C6.10431 11.489 5.95131 11.23 5.64531 10.713L5.36731 10.243C4.29031 8.422 3.75231 7.512 4.11031 6.787C4.47031 6.063 5.48931 6.004 7.52831 5.887L8.05531 5.857C8.63531 5.823 8.92431 5.807 9.17731 5.672C9.42931 5.537 9.61631 5.3 9.99031 4.824L10.3303 4.392C11.6463 2.719 12.3043 1.883 13.0603 2.012C13.8163 2.141 14.1703 3.149 14.8773 5.166" fill="#FAAD13"/>
</svg>
