<svg width="24" height="24" viewBox="0 0 24 24" fill="none" xmlns="http://www.w3.org/2000/svg">
<g clip-path="url(#clip0_4382_4550)">
<path d="M23.998 3.53805V20H23.405C21.35 20 19.504 18.7421 18.752 16.8291L16.46 11H10.998C10.002 11 9.07804 10.319 8.91804 9.33605C8.71404 8.08305 9.67604 7.00005 10.891 7.00005H20.815C19.929 5.92405 19.063 4.88905 19.031 4.85505C18.17 3.93305 18.218 2.48205 19.14 1.62005C20.063 0.75705 21.512 0.80105 22.37 1.71805L23.998 3.53805Z" fill="#9CC0F2"/>
<path d="M0 17V19C0 21.757 2.243 24 5 24H11C13.757 24 16 21.757 16 19V17H0ZM9 21.5H7C6.448 21.5 6 21.052 6 20.5C6 19.948 6.448 19.5 7 19.5H9C9.552 19.5 10 19.948 10 20.5C10 21.052 9.552 21.5 9 21.5Z" fill="#9CC0F2"/>
<path d="M7 9C7 6.791 8.791 5 11 5H16C16 2.239 13.761 0 11 0H5C2.239 0 0 2.239 0 5V15H16V13H11C8.791 13 7 11.209 7 9Z" fill="#9CC0F2"/>
</g>
<defs>
<clipPath id="clip0_4382_4550">
<rect width="24" height="24" fill="white"/>
</clipPath>
</defs>
</svg>
