<svg width="24" height="24" viewBox="0 0 24 24" fill="none" xmlns="http://www.w3.org/2000/svg">
<g clip-path="url(#clip0_4435_3266)">
<path d="M2.8125 4.6875C3.84803 4.6875 4.6875 3.84803 4.6875 2.8125C4.6875 1.77697 3.84803 0.9375 2.8125 0.9375C1.77697 0.9375 0.9375 1.77697 0.9375 2.8125C0.9375 3.84803 1.77697 4.6875 2.8125 4.6875Z" stroke="#222222" stroke-width="1.5" stroke-miterlimit="10" stroke-linecap="round" stroke-linejoin="round"/>
<path d="M14.0625 4.6875C15.098 4.6875 15.9375 3.84803 15.9375 2.8125C15.9375 1.77697 15.098 0.9375 14.0625 0.9375C13.027 0.9375 12.1875 1.77697 12.1875 2.8125C12.1875 3.84803 13.027 4.6875 14.0625 4.6875Z" stroke="#222222" stroke-width="1.5" stroke-miterlimit="10" stroke-linecap="round" stroke-linejoin="round"/>
<path d="M15.9375 2.8125V6.1875C15.9375 10.3296 12.5797 13.6875 8.4375 13.6875C4.29534 13.6875 0.9375 10.3297 0.9375 6.1875V2.8125" stroke="#222222" stroke-width="1.5" stroke-miterlimit="10" stroke-linecap="round" stroke-linejoin="round"/>
<path d="M21.1875 23.0625C22.223 23.0625 23.0625 22.223 23.0625 21.1875C23.0625 20.152 22.223 19.3125 21.1875 19.3125C20.152 19.3125 19.3125 20.152 19.3125 21.1875C19.3125 22.223 20.152 23.0625 21.1875 23.0625Z" stroke="#222222" stroke-width="1.5" stroke-miterlimit="10" stroke-linecap="round" stroke-linejoin="round"/>
<path d="M8.4375 13.6875V19.3125C8.4375 21.3836 10.1164 23.0625 12.1875 23.0625C14.2586 23.0625 15.9375 21.3836 15.9375 19.3125V16.5C15.9375 14.9467 17.0092 13.6875 18.5625 13.6875C19.7877 13.6875 20.7133 14.4709 21.0496 15.5642" stroke="#222222" stroke-width="1.5" stroke-miterlimit="10" stroke-linecap="round" stroke-linejoin="round"/>
</g>
<defs>
<clipPath id="clip0_4435_3266">
<rect width="24" height="24" fill="white"/>
</clipPath>
</defs>
</svg>
