<svg width="24" height="24" viewBox="0 0 24 24" fill="none" xmlns="http://www.w3.org/2000/svg">
<g clip-path="url(#clip0_4435_3259)">
<path d="M10.125 0.849609H13.875C15.3706 0.849609 16.5879 2.06692 16.5879 3.5625C16.5879 4.02505 16.2126 4.40039 15.75 4.40039C15.2874 4.40039 14.9121 4.02505 14.9121 3.5625C14.9121 2.99033 14.4472 2.52539 13.875 2.52539H10.125C9.55283 2.52539 9.08789 2.99033 9.08789 3.5625C9.08789 4.02505 8.71255 4.40039 8.25 4.40039C7.78745 4.40039 7.41211 4.02505 7.41211 3.5625C7.41211 2.06692 8.62942 0.849609 10.125 0.849609Z" fill="#222222" stroke="#F8F8F8" stroke-width="0.2"/>
<path d="M4.6875 6.47461H19.3125C21.842 6.47461 23.9004 8.53304 23.9004 11.0625V18.5625C23.9004 21.092 21.842 23.1504 19.3125 23.1504H4.6875C2.15804 23.1504 0.0996094 21.092 0.0996094 18.5625V11.0625C0.0996094 8.53304 2.15804 6.47461 4.6875 6.47461ZM4.6875 8.15039C3.08146 8.15039 1.77539 9.45646 1.77539 11.0625V18.5625C1.77539 20.1685 3.08146 21.4746 4.6875 21.4746H19.3125C20.9185 21.4746 22.2246 20.1685 22.2246 18.5625V11.0625C22.2246 9.45646 20.9185 8.15039 19.3125 8.15039H4.6875Z" fill="#222222" stroke="#F8F8F8" stroke-width="0.2"/>
<path d="M12 12.0996C12.4626 12.0996 12.8379 12.4749 12.8379 12.9375V13.9746H13.875C14.3376 13.9746 14.7129 14.3499 14.7129 14.8125C14.7129 15.2751 14.3376 15.6504 13.875 15.6504H12.8379V16.6875C12.8379 17.1501 12.4626 17.5254 12 17.5254C11.5374 17.5254 11.1621 17.1501 11.1621 16.6875V15.6504H10.125C9.66245 15.6504 9.28711 15.2751 9.28711 14.8125C9.28711 14.3499 9.66245 13.9746 10.125 13.9746H11.1621V12.9375C11.1621 12.4749 11.5374 12.0996 12 12.0996Z" fill="#222222" stroke="#F8F8F8" stroke-width="0.2"/>
<path d="M4.6875 10.2246C5.15005 10.2246 5.52539 10.5999 5.52539 11.0625V18.5625C5.52539 19.0251 5.15005 19.4004 4.6875 19.4004C4.22495 19.4004 3.84961 19.0251 3.84961 18.5625V11.0625C3.84961 10.5999 4.22495 10.2246 4.6875 10.2246Z" fill="#222222" stroke="#F8F8F8" stroke-width="0.2"/>
<path d="M19.3125 10.2246C19.7751 10.2246 20.1504 10.5999 20.1504 11.0625V18.5625C20.1504 19.0251 19.7751 19.4004 19.3125 19.4004C18.8499 19.4004 18.4746 19.0251 18.4746 18.5625V11.0625C18.4746 10.5999 18.8499 10.2246 19.3125 10.2246Z" fill="#222222" stroke="#F8F8F8" stroke-width="0.2"/>
</g>
<defs>
<clipPath id="clip0_4435_3259">
<rect width="24" height="24" fill="white"/>
</clipPath>
</defs>
</svg>
