<svg width="24" height="24" viewBox="0 0 24 24" fill="none" xmlns="http://www.w3.org/2000/svg">
<path d="M15.2475 16.5469C14.0964 14.2533 12.474 12.2898 10.3843 10.6537M6.89065 17.1562L5.41409 18.6328M19.2897 8.76562C18.1891 7.24983 16.8369 5.91052 15.2344 4.74675M23.0625 8.15625C21.311 5.28802 18.9029 2.88309 15.8438 0.9375M17.372 12.505C17.8265 13.2449 17.7147 14.2005 17.1012 14.8148L15.4781 16.44C14.3918 17.5277 13.3211 17.7361 11.8974 17.7456C10.9675 17.7517 10.0783 18.1289 9.42077 18.7873L6.02374 22.1887C4.86016 23.3538 2.97368 23.3538 1.81015 22.1887C0.646617 21.0237 0.646617 19.1347 1.81015 17.9697L5.20718 14.5683C5.86474 13.9099 6.24143 13.0196 6.24757 12.0885C6.25699 10.6629 6.80468 9.24033 7.89096 8.15264L9.14065 6.89081C9.75724 6.27342 10.7201 6.16017 11.4575 6.6263C13.9639 8.21072 15.937 10.1692 17.372 12.505Z" stroke="#222222" stroke-width="1.5" stroke-miterlimit="10" stroke-linecap="round" stroke-linejoin="round"/>
</svg>
