<svg width="24" height="24" viewBox="0 0 24 24" fill="none" xmlns="http://www.w3.org/2000/svg">
<g clip-path="url(#clip0_4435_3363)">
<path d="M8.5 11C8.5 8.794 6.706 7 4.5 7C2.294 7 0.5 8.794 0.5 11C0.5 12.255 1.093 13.363 2 14.097V18.847C2 19.47 2.791 19.737 3.169 19.242L4.5 17.499L5.831 19.242C6.209 19.737 7 19.47 7 18.847V14.097C7.907 13.363 8.5 12.255 8.5 11ZM24 10.485V19C24 21.757 21.757 24 19 24H9C6.897 24 5.101 22.691 4.364 20.849C4.407 20.812 4.459 20.789 4.5 20.749C4.999 21.235 5.664 21.5 6.348 21.5C6.632 21.5 6.919 21.455 7.199 21.36C8.227 21.011 8.926 20.074 8.988 19.001H18C18.552 19.001 19 18.554 19 18.001C19 17.448 18.552 17.001 18 17.001H9V15.001H18C18.552 15.001 19 14.554 19 14.001C19 13.448 18.552 13.001 18 13.001H10.142C10.371 12.366 10.5 11.693 10.5 11.001C10.5 7.692 7.809 5.001 4.5 5.001C4.331 5.001 4.165 5.013 4 5.026V5.001C4 2.243 6.243 0 9 0H13.515C13.678 0 13.839 0.013 14 0.024V7C14 8.654 15.346 10 17 10H23.976C23.987 10.161 24 10.322 24 10.485ZM16 7V0.46C16.913 0.806 17.753 1.339 18.465 2.05L21.949 5.536C22.661 6.247 23.194 7.087 23.54 8H17C16.448 8 16 7.551 16 7Z" fill="#9CC0F2"/>
</g>
<defs>
<clipPath id="clip0_4435_3363">
<rect width="24" height="24" fill="white"/>
</clipPath>
</defs>
</svg>
